<svg width="311" height="108" viewBox="0 0 311 108" fill="none" xmlns="http://www.w3.org/2000/svg">
<g clip-path="url(#clip0)">
<path d="M209.35 82.9699C210.67 82.9699 211.94 83.3799 213.03 84.1499C215.85 86.1599 216.54 90.0799 214.58 92.9299L202.99 105.25L202.93 105.31L202.87 105.4L202.85 105.41H202.83L202.78 105.34L202.7 105.26L191.11 92.9399C189.15 90.0899 189.84 86.1799 192.66 84.1599C193.74 83.3899 195.01 82.9799 196.34 82.9799C198.36 82.9799 200.21 83.8999 201.42 85.5099L202.84 87.3899L204.26 85.5099C205.48 83.8999 207.33 82.9699 209.35 82.9699ZM209.35 81.1899C206.88 81.1899 204.44 82.3099 202.85 84.4299C201.26 82.3199 198.82 81.1899 196.35 81.1899C194.72 81.1899 193.07 81.6799 191.64 82.6999C187.98 85.3099 187.13 90.3899 189.74 94.0499L201.41 106.46C201.67 106.82 202.07 107.07 202.53 107.15C202.63 107.17 202.72 107.19 202.82 107.19C202.83 107.19 202.84 107.19 202.85 107.19C202.86 107.19 202.87 107.19 202.88 107.19C202.98 107.19 203.07 107.17 203.17 107.15C203.63 107.07 204.03 106.82 204.29 106.46L215.96 94.0499C218.57 90.3899 217.72 85.3099 214.06 82.6999C212.63 81.6899 210.98 81.1899 209.35 81.1899Z" fill="white"/>
<path d="M200.56 48.31V49.69C200.56 50.76 199.69 51.63 198.62 51.63H196.94C195.87 51.63 195 50.76 195 49.69V48.31H200.56ZM202.34 46.53H193.22V49.69C193.22 51.74 194.89 53.41 196.94 53.41H198.62C200.67 53.41 202.34 51.74 202.34 49.69V46.53Z" fill="white"/>
<path d="M194.12 42.5601V47.0201" stroke="white" stroke-width="1.78" stroke-miterlimit="10" stroke-linecap="round" stroke-linejoin="round"/>
<path d="M197.78 42.5601V47.0201" stroke="white" stroke-width="1.78" stroke-miterlimit="10" stroke-linecap="round" stroke-linejoin="round"/>
<path d="M201.44 42.5601V47.0201" stroke="white" stroke-width="1.78" stroke-miterlimit="10" stroke-linecap="round" stroke-linejoin="round"/>
<path d="M197.78 52.55V66.6" stroke="white" stroke-width="1.78" stroke-miterlimit="10" stroke-linecap="round" stroke-linejoin="round"/>
<path d="M212.46 52.55V66.6" stroke="white" stroke-width="1.78" stroke-miterlimit="10" stroke-linecap="round" stroke-linejoin="round"/>
<path d="M207.97 55.3601C212.02 55.3601 212.47 55.3601 212.47 55.3601V42.6001C212.46 42.6001 207.97 43.2301 207.97 55.3601Z" stroke="white" stroke-width="1.78" stroke-miterlimit="10" stroke-linecap="round" stroke-linejoin="round"/>
<path d="M203.78 4.47995C205.91 4.47995 207.66 6.14995 207.75 8.27995C207.75 8.32995 207.76 8.36995 207.76 8.41995V24.2199H197.91V8.41995C197.92 8.37995 197.92 8.32995 197.92 8.27995C198.02 6.14995 199.76 4.47995 201.89 4.47995H203.78ZM203.78 2.69995H201.9C198.82 2.69995 196.29 5.14995 196.15 8.19995H196.14V24.2099C196.14 25.1899 196.94 25.99 197.92 25.99H207.77C208.75 25.99 209.55 25.1899 209.55 24.2099V8.20995H209.54C209.4 5.15995 206.87 2.69995 203.78 2.69995Z" fill="white"/>
<path d="M205.27 0.189941H200.32V4.36994H205.27V0.189941Z" fill="white"/>
<path d="M207.77 12.1599V16.7099H197.92V12.1599H207.77ZM209.55 10.3799H196.13V18.4899H209.55V10.3799Z" fill="white"/>
<path d="M27.15 9.80002C27.44 9.80002 27.68 9.89002 27.81 10.05C27.94 10.21 27.98 10.46 27.92 10.74L25.4 22.54C25.21 23.42 24.22 24.22 23.32 24.22H6.39997C5.49997 24.22 4.50997 23.42 4.31997 22.54L1.80997 10.74C1.74997 10.45 1.78997 10.21 1.91997 10.05C2.04997 9.89002 2.27997 9.80002 2.56997 9.80002H27.15ZM27.15 8.02002H2.56997C0.829974 8.02002 -0.300025 9.41002 0.0699745 11.11L2.57997 22.9C2.93997 24.61 4.65998 26 6.39997 26H23.32C25.06 26 26.78 24.61 27.14 22.91L29.65 11.12C30.01 9.41002 28.89 8.02002 27.15 8.02002Z" fill="white"/>
<path d="M11.88 1.09009L6.45996 10.8901" stroke="white" stroke-width="1.78" stroke-miterlimit="10" stroke-linecap="round"/>
<path d="M17.8398 1.09009L23.2598 10.8901" stroke="white" stroke-width="1.78" stroke-miterlimit="10" stroke-linecap="round"/>
<path d="M15.7999 85.6799C17.9299 85.6799 19.6799 87.3499 19.7699 89.4799C19.7699 89.5299 19.7799 89.5699 19.7799 89.6199V105.41H9.9299V89.6099C9.9399 89.5699 9.9399 89.5199 9.9399 89.4699C10.0399 87.3399 11.7799 85.6699 13.9099 85.6699H15.7999V85.6799ZM15.7999 83.8999H13.9199C10.8399 83.8999 8.3099 86.3499 8.1699 89.3999H8.1499V105.41C8.1499 106.39 8.9499 107.19 9.9299 107.19H19.7899C20.7699 107.19 21.5699 106.39 21.5699 105.41V89.3999H21.5599C21.4099 86.3499 18.8799 83.8999 15.7999 83.8999Z" fill="white"/>
<path d="M17.2898 81.3899H12.3398V85.5699H17.2898V81.3899Z" fill="white"/>
<path d="M19.7899 93.3498V97.8998H9.9299V93.3498H19.7899ZM21.5699 91.5698H8.1499V99.6798H21.5699V91.5698Z" fill="white"/>
<path d="M14.86 42.7199C20.95 42.7199 25.91 47.6799 25.91 53.7699C25.91 59.8599 20.95 64.8199 14.86 64.8199C8.77003 64.8199 3.81003 59.8599 3.81003 53.7699C3.81003 47.6799 8.77003 42.7199 14.86 42.7199ZM14.86 40.9399C7.78003 40.9399 2.03003 46.6799 2.03003 53.7699C2.03003 60.8499 7.77003 66.5999 14.86 66.5999C21.95 66.5999 27.69 60.8599 27.69 53.7699C27.69 46.6799 21.94 40.9399 14.86 40.9399Z" fill="white"/>
<path d="M14.8601 47.79C18.1601 47.79 20.8401 50.47 20.8401 53.77C20.8401 57.07 18.1601 59.75 14.8601 59.75C11.5601 59.75 8.8801 57.07 8.8801 53.77C8.8801 50.47 11.5601 47.79 14.8601 47.79ZM14.8601 46.01C10.5701 46.01 7.1001 49.49 7.1001 53.77C7.1001 58.06 10.5801 61.53 14.8601 61.53C19.1401 61.53 22.6201 58.05 22.6201 53.77C22.6201 49.48 19.1501 46.01 14.8601 46.01Z" fill="white"/>
<path d="M68.9699 1.78C70.2899 1.78 71.5599 2.19 72.6499 2.96C75.4699 4.97 76.1599 8.89 74.1999 11.74L62.6199 24.05L62.5599 24.11L62.4899 24.2H62.4699H62.4599L62.4099 24.13L62.3299 24.05L50.7399 11.74C48.7799 8.89 49.4699 4.98 52.2899 2.96C53.3699 2.19 54.6399 1.78 55.9699 1.78C57.9899 1.78 59.8399 2.7 61.0499 4.31L62.4699 6.19L63.8899 4.31C65.0999 2.7 66.9599 1.78 68.9699 1.78ZM68.9699 0C66.4999 0 64.0599 1.12 62.4699 3.24C60.8799 1.12 58.4399 0 55.9699 0C54.3399 0 52.6899 0.49 51.2599 1.51C47.5999 4.12 46.7499 9.2 49.3599 12.86L61.0299 25.27C61.2899 25.63 61.6899 25.88 62.1499 25.96C62.2499 25.98 62.3399 26 62.4399 26C62.4499 26 62.4599 26 62.4699 26C62.4799 26 62.4899 26 62.4999 26C62.5999 26 62.6899 25.98 62.7899 25.96C63.2499 25.88 63.6499 25.63 63.9099 25.27L75.5799 12.86C78.1899 9.2 77.3399 4.12 73.6799 1.51C72.2499 0.49 70.6099 0 68.9699 0Z" fill="white"/>
<path d="M74.5199 83.1699V105.41H50.4199V83.1699H74.5199ZM74.5199 81.3899H50.4199C49.4399 81.3899 48.6399 82.1899 48.6399 83.1699V105.41C48.6399 106.39 49.4399 107.19 50.4199 107.19H74.5199C75.4999 107.19 76.2999 106.39 76.2999 105.41V83.1699C76.2999 82.1899 75.4999 81.3899 74.5199 81.3899Z" fill="white"/>
<path d="M64.6398 82.2798H60.3098V96.3298H64.6398V82.2798Z" fill="white"/>
<path d="M60.1801 55.04L58.9001 64.6C58.8901 64.69 58.7401 64.82 58.6501 64.82H54.0601C53.9701 64.82 53.8201 64.69 53.8101 64.6L52.5301 55.04H60.1801ZM60.4401 53.26H52.2901C51.3101 53.26 50.6201 54.05 50.7501 55.02L52.0601 64.83C52.1901 65.8 53.1001 66.59 54.0801 66.59H58.6701C59.6501 66.59 60.5601 65.8 60.6901 64.83L62.0001 55.02C62.1101 54.05 61.4101 53.26 60.4401 53.26Z" fill="white"/>
<path d="M73.2901 42.3801V64.8201H66.9201V42.3801H73.2901ZM73.2901 40.6001H66.9201C65.9401 40.6001 65.1401 41.4001 65.1401 42.3801V64.8201C65.1401 65.8001 65.9401 66.6001 66.9201 66.6001H73.2901C74.2701 66.6001 75.0701 65.8001 75.0701 64.8201V42.3801C75.0701 41.4001 74.2701 40.6001 73.2901 40.6001Z" fill="white"/>
<path d="M73.2901 50.9702V56.8602H66.9201V50.9702H73.2901ZM75.0701 49.1902H65.1401V58.6402H75.0701V49.1902Z" fill="white"/>
<path d="M62.4101 53.26H50.3201C50.0801 53.26 49.8701 53.46 49.8701 53.7V54.63C49.8701 54.87 50.0701 55.08 50.3201 55.08H62.4101C62.6501 55.08 62.8601 54.88 62.8601 54.63V53.7C62.8501 53.46 62.6501 53.26 62.4101 53.26Z" fill="white"/>
<path d="M307.89 9.80002C308.18 9.80002 308.42 9.89002 308.55 10.05C308.68 10.21 308.72 10.46 308.66 10.74L306.15 22.53C305.96 23.41 304.97 24.21 304.07 24.21H287.15C286.25 24.21 285.26 23.41 285.07 22.53L282.56 10.74C282.5 10.45 282.54 10.21 282.67 10.05C282.8 9.89002 283.03 9.80002 283.33 9.80002H307.89ZM307.89 8.02002H283.31C281.57 8.02002 280.44 9.41002 280.81 11.11L283.32 22.9C283.68 24.6 285.4 25.99 287.14 25.99H304.06C305.8 25.99 307.52 24.6 307.88 22.9L310.39 11.11C310.76 9.41002 309.63 8.02002 307.89 8.02002Z" fill="white"/>
<path d="M292.63 1.09009L287.2 10.8901" stroke="white" stroke-width="1.78" stroke-miterlimit="10" stroke-linecap="round"/>
<path d="M298.58 1.09009L304.01 10.8901" stroke="white" stroke-width="1.78" stroke-miterlimit="10" stroke-linecap="round"/>
<path d="M302.11 42.3801C303.43 42.3801 304.7 42.7901 305.79 43.5601C307.17 44.5501 308.09 46.0101 308.37 47.6901C308.64 49.3301 308.28 50.9701 307.34 52.3401L295.75 64.6601L295.69 64.7201L295.63 64.8101L295.61 64.8201H295.59L295.54 64.7501L295.46 64.6701L283.87 52.3501C281.91 49.5001 282.6 45.5901 285.42 43.5701C286.5 42.8001 287.77 42.3901 289.1 42.3901C291.12 42.3901 292.97 43.3101 294.18 44.9201L295.6 46.8001L297.02 44.9201C298.24 43.3001 300.09 42.3801 302.11 42.3801ZM302.11 40.6001C299.64 40.6001 297.2 41.7201 295.61 43.8401C294.02 41.7301 291.58 40.6001 289.11 40.6001C287.48 40.6001 285.83 41.0901 284.4 42.1101C280.74 44.7201 279.89 49.8001 282.5 53.4601L294.17 65.8701C294.43 66.2301 294.83 66.4801 295.29 66.5601C295.39 66.5801 295.48 66.6001 295.58 66.6001C295.59 66.6001 295.6 66.6001 295.61 66.6001C295.62 66.6001 295.63 66.6001 295.64 66.6001C295.74 66.6001 295.83 66.5801 295.93 66.5601C296.39 66.4801 296.79 66.2301 297.05 65.8701L308.72 53.4601C311.33 49.8001 310.48 44.7201 306.82 42.1101C305.39 41.0901 303.74 40.6001 302.11 40.6001Z" fill="white"/>
<path d="M296.54 85.6799C298.67 85.6799 300.42 87.3499 300.51 89.4799C300.51 89.5299 300.52 89.5699 300.52 89.6199V105.42H290.66V89.6199C290.67 89.5699 290.67 89.5299 290.67 89.4799C290.77 87.3499 292.51 85.6799 294.64 85.6799H296.54ZM296.54 83.8999H294.66C291.58 83.8999 289.05 86.3499 288.91 89.3999H288.9V105.41C288.9 106.39 289.7 107.19 290.68 107.19H300.54C301.52 107.19 302.32 106.39 302.32 105.41V89.3999H302.31C302.16 86.3499 299.63 83.8999 296.54 83.8999Z" fill="white"/>
<path d="M298.03 81.3899H293.08V85.5699H298.03V81.3899Z" fill="white"/>
<path d="M300.53 93.3498V97.8998H290.67V93.3498H300.53ZM302.31 91.5698H288.89V99.6798H302.31V91.5698Z" fill="white"/>
<path d="M261.1 91C261.39 91 261.63 91.09 261.76 91.25C261.89 91.41 261.93 91.66 261.87 91.94L259.36 103.73C259.17 104.61 258.18 105.41 257.28 105.41H240.36C239.46 105.41 238.47 104.61 238.28 103.73L235.77 91.94C235.71 91.65 235.75 91.41 235.88 91.25C236.01 91.09 236.24 91 236.54 91H261.1ZM261.1 89.22H236.52C234.78 89.22 233.65 90.61 234.02 92.31L236.53 104.1C236.89 105.8 238.61 107.19 240.35 107.19H257.27C259.01 107.19 260.73 105.8 261.09 104.1L263.6 92.31C263.97 90.61 262.84 89.22 261.1 89.22Z" fill="white"/>
<path d="M245.83 82.28L240.41 92.08" stroke="white" stroke-width="1.78" stroke-miterlimit="10" stroke-linecap="round"/>
<path d="M251.79 82.28L257.21 92.08" stroke="white" stroke-width="1.78" stroke-miterlimit="10" stroke-linecap="round"/>
<path d="M260.86 42.57V64.81H236.76V42.57H260.86ZM260.86 40.79H236.76C235.78 40.79 234.98 41.59 234.98 42.57V64.81C234.98 65.79 235.78 66.59 236.76 66.59H260.86C261.84 66.59 262.64 65.79 262.64 64.81V42.57C262.64 41.59 261.84 40.79 260.86 40.79Z" fill="white"/>
<path d="M250.98 41.6799H246.65V55.7299H250.98V41.6799Z" fill="white"/>
<path d="M248.81 2.12009C254.9 2.12009 259.86 7.08009 259.86 13.1701C259.86 19.2601 254.9 24.2201 248.81 24.2201C242.72 24.2201 237.76 19.2601 237.76 13.1701C237.76 7.08009 242.72 2.12009 248.81 2.12009ZM248.81 0.340088C241.73 0.340088 235.98 6.08009 235.98 13.1701C235.98 20.2601 241.72 26.0001 248.81 26.0001C255.9 26.0001 261.64 20.2601 261.64 13.1701C261.64 6.09009 255.9 0.340088 248.81 0.340088Z" fill="white"/>
<path d="M248.81 7.19016C252.11 7.19016 254.79 9.87016 254.79 13.1702C254.79 16.4702 252.11 19.1502 248.81 19.1502C245.51 19.1502 242.83 16.4702 242.83 13.1702C242.83 9.87016 245.51 7.19016 248.81 7.19016ZM248.81 5.41016C244.52 5.41016 241.05 8.89016 241.05 13.1702C241.05 17.4502 244.53 20.9302 248.81 20.9302C253.09 20.9302 256.57 17.4502 256.57 13.1702C256.57 8.89016 253.1 5.41016 248.81 5.41016Z" fill="white"/>
<path d="M120.73 50.3999C121.02 50.3999 121.26 50.4899 121.39 50.6499C121.52 50.8099 121.56 51.0599 121.5 51.3399L118.99 63.1299C118.8 64.0099 117.81 64.8099 116.91 64.8099H99.9801C99.0801 64.8099 98.0901 64.0099 97.9001 63.1299L95.3901 51.3399C95.3301 51.0499 95.3701 50.8099 95.5001 50.6499C95.6301 50.4899 95.8601 50.3999 96.1601 50.3999H120.73ZM120.73 48.6199H96.1501C94.4101 48.6199 93.2801 50.0099 93.6501 51.7099L96.1601 63.4999C96.5201 65.1999 98.2401 66.5899 99.9801 66.5899H116.9C118.64 66.5899 120.36 65.1999 120.72 63.4999L123.23 51.7099C123.59 50.0099 122.47 48.6199 120.73 48.6199Z" fill="white"/>
<path d="M105.46 41.6799L100.04 51.4899" stroke="white" stroke-width="1.78" stroke-miterlimit="10" stroke-linecap="round"/>
<path d="M111.42 41.6799L116.84 51.4899" stroke="white" stroke-width="1.78" stroke-miterlimit="10" stroke-linecap="round"/>
<path d="M120.49 1.97995V24.2199H96.3901V1.97995H120.49ZM120.49 0.199951H96.3901C95.4101 0.199951 94.6101 0.999951 94.6101 1.97995V24.2199C94.6101 25.1999 95.4101 26 96.3901 26H120.49C121.47 26 122.27 25.1999 122.27 24.2199V1.97995C122.27 0.999951 121.47 0.199951 120.49 0.199951Z" fill="white"/>
<path d="M110.61 1.08984H106.28V15.1398H110.61V1.08984Z" fill="white"/>
<path d="M116.05 83.1699V105.42H100.83V83.1699H116.05ZM117.83 81.3899H99.05V107.2H117.83V81.3899Z" fill="white"/>
<path d="M116.05 91.4699V96.7099H100.83V91.4699H116.05ZM117.83 89.6899H99.05V98.4899H117.83V89.6899Z" fill="white"/>
<path d="M162.55 42.3801C163.87 42.3801 165.14 42.7901 166.23 43.5601C169.05 45.5701 169.74 49.4901 167.78 52.3401L156.2 64.6501L156.14 64.7101L156.08 64.7901H156.04L155.99 64.7201L155.91 64.6401L144.32 52.3201C143.38 50.9501 143.02 49.3101 143.29 47.6701C143.57 45.9901 144.49 44.5301 145.87 43.5401C146.95 42.7701 148.22 42.3601 149.55 42.3601C151.57 42.3601 153.42 43.2801 154.63 44.8901L156.05 46.7701L157.47 44.8901C158.69 43.3001 160.54 42.3801 162.55 42.3801ZM162.55 40.6001C160.08 40.6001 157.64 41.7201 156.05 43.8401C154.46 41.7301 152.02 40.6001 149.55 40.6001C147.92 40.6001 146.27 41.0901 144.84 42.1101C141.18 44.7201 140.33 49.8001 142.94 53.4601L154.61 65.8701C154.87 66.2301 155.27 66.4801 155.73 66.5601C155.83 66.5801 155.92 66.6001 156.02 66.6001C156.03 66.6001 156.04 66.6001 156.05 66.6001C156.06 66.6001 156.07 66.6001 156.08 66.6001C156.18 66.6001 156.27 66.5801 156.37 66.5601C156.83 66.4801 157.23 66.2301 157.49 65.8701L169.16 53.4601C171.77 49.8001 170.92 44.7201 167.26 42.1101C165.83 41.0901 164.19 40.6001 162.55 40.6001Z" fill="white"/>
<path d="M164.23 1.96994V24.2199H149.01V1.96994H164.23ZM166.01 0.189941H147.23V25.9999H166.01V0.189941Z" fill="white"/>
<path d="M164.23 10.27V15.51H149.01V10.27H164.23ZM166.01 8.48999H147.23V17.29H166.01V8.48999Z" fill="white"/>
<path d="M154.02 95.6299L152.74 105.19C152.73 105.28 152.58 105.41 152.49 105.41H147.9C147.81 105.41 147.66 105.28 147.65 105.19L146.37 95.6299H154.02ZM154.27 93.8499H146.12C145.14 93.8499 144.45 94.6399 144.58 95.6099L145.89 105.42C146.02 106.39 146.93 107.18 147.91 107.18H152.5C153.48 107.18 154.39 106.39 154.52 105.42L155.83 95.6099C155.95 94.6499 155.25 93.8499 154.27 93.8499Z" fill="white"/>
<path d="M167.13 82.9699V105.41H160.76V82.9699H167.13ZM167.13 81.1899H160.76C159.78 81.1899 158.98 81.9899 158.98 82.9699V105.41C158.98 106.39 159.78 107.19 160.76 107.19H167.13C168.11 107.19 168.91 106.39 168.91 105.41V82.9699C168.91 81.9999 168.1 81.1899 167.13 81.1899Z" fill="white"/>
<path d="M167.13 91.56V97.45H160.76V91.56H167.13ZM168.91 89.78H158.98V99.23H168.91V89.78Z" fill="white"/>
</g>
<defs>
<clipPath id="clip0">
<rect width="310.46" height="107.19" fill="white"/>
</clipPath>
</defs>
</svg>
