<svg width="485" height="222" viewBox="0 0 485 222" fill="none" xmlns="http://www.w3.org/2000/svg">
<path d="M61.0897 22.3003C61.7397 22.3003 62.2597 22.5003 62.5497 22.8503C62.8397 23.2003 62.9197 23.7501 62.7897 24.3901L57.1997 50.6301C56.7797 52.5901 54.5797 54.3801 52.5697 54.3801H14.9197C12.9197 54.3801 10.7097 52.5901 10.2897 50.6301L4.69971 24.3901C4.55971 23.7501 4.64971 23.2003 4.93971 22.8503C5.22971 22.5003 5.74971 22.3003 6.39971 22.3003H61.0897ZM61.0897 18.3403H6.39971C2.52972 18.3403 0.0197151 21.4402 0.829715 25.2202L6.41971 51.4602C7.22971 55.2502 11.0497 58.3403 14.9197 58.3403H52.5697C56.4397 58.3403 60.2697 55.2402 61.0697 51.4602L66.6597 25.2202C67.4697 21.4402 64.9597 18.3403 61.0897 18.3403Z" fill="white"/>
<path d="M27.12 2.91016L15.04 24.7202" stroke="white" stroke-width="3.9611" stroke-miterlimit="10" stroke-linecap="round"/>
<path d="M40.3701 2.91016L52.4501 24.7202" stroke="white" stroke-width="3.9611" stroke-miterlimit="10" stroke-linecap="round"/>
<path d="M221.309 102.44C221.959 102.44 222.479 102.64 222.769 102.99C223.059 103.35 223.139 103.89 223.009 104.53L217.419 130.77C216.999 132.73 214.799 134.52 212.789 134.52H175.139C173.139 134.52 170.929 132.73 170.509 130.77L164.919 104.53C164.779 103.89 164.869 103.34 165.159 102.99C165.449 102.63 165.969 102.44 166.619 102.44H221.309ZM221.309 98.48H166.619C162.749 98.48 160.239 101.58 161.049 105.36L166.639 131.6C167.449 135.39 171.269 138.48 175.139 138.48H212.789C216.659 138.48 220.489 135.38 221.289 131.6L226.879 105.36C227.689 101.58 225.179 98.48 221.309 98.48Z" fill="white"/>
<path d="M187.34 83.04L175.26 104.86" stroke="white" stroke-width="3.9611" stroke-miterlimit="10" stroke-linecap="round"/>
<path d="M200.59 83.04L212.66 104.86" stroke="white" stroke-width="3.9611" stroke-miterlimit="10" stroke-linecap="round"/>
<path d="M478.66 185.87C479.31 185.87 479.83 186.07 480.12 186.42C480.41 186.78 480.49 187.32 480.36 187.96L474.77 214.2C474.35 216.16 472.15 217.95 470.14 217.95H432.49C430.49 217.95 428.28 216.16 427.86 214.2L422.27 187.96C422.13 187.32 422.22 186.77 422.51 186.42C422.8 186.06 423.32 185.87 423.97 185.87H478.66ZM478.66 181.91H423.97C420.1 181.91 417.59 185.01 418.4 188.79L423.99 215.03C424.8 218.82 428.62 221.91 432.49 221.91H470.14C474.01 221.91 477.84 218.81 478.64 215.03L484.23 188.79C485.04 185 482.53 181.91 478.66 181.91Z" fill="white"/>
<path d="M444.69 166.47L432.62 188.28" stroke="white" stroke-width="3.9611" stroke-miterlimit="10" stroke-linecap="round"/>
<path d="M457.94 166.47L470.02 188.28" stroke="white" stroke-width="3.9611" stroke-miterlimit="10" stroke-linecap="round"/>
<path d="M128.65 4.4502C131.59 4.4502 134.42 5.36032 136.83 7.08032C143.12 11.5603 144.64 20.2804 140.28 26.6104L114.5 54.0203L114.33 54.2102L114.22 54.3704L114.18 54.3801L114.14 54.3704L114.03 54.2102L113.86 54.0203L88.0796 26.6104C85.9896 23.5704 85.1795 19.9103 85.7895 16.2603C86.4095 12.5303 88.4495 9.27031 91.5295 7.07031C93.9395 5.35031 96.7696 4.44019 99.7096 4.44019C104.2 4.44019 108.32 6.49031 111.02 10.0703L114.18 14.2603L117.34 10.0703C120.04 6.50031 124.16 4.4502 128.65 4.4502ZM128.65 0.490234C123.15 0.490234 117.73 2.99019 114.18 7.69019C110.63 2.99019 105.21 0.490234 99.7096 0.490234C96.0796 0.490234 92.4095 1.58034 89.2295 3.85034C81.0795 9.66034 79.1895 20.9704 84.9995 29.1204L110.98 56.7302C111.56 57.5302 112.46 58.0903 113.47 58.2703C113.47 58.2703 113.47 58.2703 113.48 58.2703C113.69 58.3103 113.9 58.3503 114.13 58.3503C114.15 58.3503 114.17 58.3403 114.19 58.3403C114.21 58.3403 114.23 58.3503 114.25 58.3503C114.47 58.3503 114.68 58.3103 114.9 58.2703C114.9 58.2703 114.9 58.2703 114.91 58.2703C115.93 58.0903 116.82 57.5302 117.4 56.7302L143.38 29.1204C149.19 20.9704 147.29 9.66034 139.15 3.85034C135.95 1.58034 132.28 0.490234 128.65 0.490234Z" fill="white"/>
<path d="M376.15 168.01C379.09 168.01 381.92 168.92 384.33 170.64C390.62 175.12 392.14 183.84 387.78 190.17L362 217.58L361.82 217.77L361.71 217.93L361.67 217.94L361.63 217.93L361.52 217.77L361.34 217.58L335.56 190.17C331.21 183.83 332.73 175.12 339.01 170.64C341.42 168.92 344.25 168.01 347.19 168.01C351.68 168.01 355.8 170.06 358.5 173.64L361.66 177.83L364.82 173.64C367.54 170.07 371.66 168.01 376.15 168.01ZM376.15 164.05C370.65 164.05 365.23 166.55 361.68 171.25C358.13 166.55 352.71 164.05 347.21 164.05C343.58 164.05 339.91 165.14 336.73 167.41C328.58 173.22 326.69 184.53 332.5 192.68L358.48 220.29C359.06 221.09 359.96 221.65 360.97 221.83C360.97 221.83 360.97 221.83 360.98 221.83C361.19 221.87 361.4 221.91 361.63 221.91C361.65 221.91 361.67 221.9 361.69 221.9C361.71 221.9 361.73 221.91 361.75 221.91C361.97 221.91 362.18 221.87 362.4 221.83C362.4 221.83 362.4 221.83 362.41 221.83C363.43 221.65 364.32 221.09 364.9 220.29L390.88 192.68C396.69 184.53 394.79 173.22 386.65 167.41C383.45 165.14 379.78 164.05 376.15 164.05Z" fill="white"/>
<path d="M48.2199 84.5901C51.1599 84.5901 53.9899 85.5 56.3999 87.22C62.6899 91.7 64.2099 100.42 59.8499 106.75L34.0699 134.16L33.8999 134.35L33.7799 134.51L33.7399 134.52L33.7099 134.51L33.5899 134.35L33.4199 134.16L7.63986 106.75C3.28986 100.41 4.80986 91.7 11.0899 87.22C13.4999 85.5 16.3299 84.5901 19.2699 84.5901C23.7599 84.5901 27.8799 86.64 30.5799 90.22L33.7399 94.4099L36.8999 90.22C39.6099 86.64 43.7299 84.5901 48.2199 84.5901ZM48.2199 80.6299C42.7199 80.6299 37.2999 83.1301 33.7499 87.8301C30.1999 83.1301 24.7799 80.6299 19.2799 80.6299C15.6499 80.6299 11.9799 81.72 8.79986 83.99C0.64986 89.8 -1.24014 101.11 4.56986 109.26L30.5499 136.87C31.1299 137.67 32.0299 138.23 33.0399 138.41C33.0399 138.41 33.0399 138.41 33.0499 138.41C33.2599 138.45 33.4699 138.49 33.6999 138.49C33.7199 138.49 33.7399 138.48 33.7599 138.48C33.7799 138.48 33.7999 138.49 33.8199 138.49C34.0399 138.49 34.2499 138.45 34.4699 138.41C34.4699 138.41 34.4699 138.41 34.4799 138.41C35.4999 138.23 36.3899 137.67 36.9699 136.87L62.9499 109.26C68.7599 101.11 66.8599 89.8 58.7199 83.99C55.5199 81.72 51.8499 80.6299 48.2199 80.6299Z" fill="white"/>
<path d="M220.769 4.88989V54.3899H167.149V4.88989H220.769ZM220.769 0.919922H167.149C164.969 0.919922 163.189 2.69988 163.189 4.87988V54.3799C163.189 56.5599 164.969 58.3401 167.149 58.3401H220.769C222.949 58.3401 224.729 56.5599 224.729 54.3799V4.87988C224.739 2.70988 222.949 0.919922 220.769 0.919922Z" fill="white"/>
<path d="M198.779 2.91016H189.149V34.1802H198.779V2.91016Z" fill="white"/>
<path d="M469.89 85.0205V134.521H416.27V85.0205H469.89ZM469.89 81.0605H416.27C414.09 81.0605 412.31 82.8405 412.31 85.0205V134.521C412.31 136.701 414.09 138.48 416.27 138.48H469.89C472.07 138.48 473.85 136.701 473.85 134.521V85.0205C473.86 82.8405 472.07 81.0605 469.89 81.0605Z" fill="white"/>
<path d="M447.9 83.0405H438.27V114.311H447.9V83.0405Z" fill="white"/>
<path d="M140.99 168.45V217.95H87.3701V168.45H140.99ZM140.99 164.49H87.3701C85.1901 164.49 83.4102 166.27 83.4102 168.45V217.95C83.4102 220.13 85.1901 221.91 87.3701 221.91H140.99C143.17 221.91 144.95 220.13 144.95 217.95V168.45C144.95 166.27 143.17 164.49 140.99 164.49Z" fill="white"/>
<path d="M118.99 166.47H109.36V197.74H118.99V166.47Z" fill="white"/>
<path d="M365.32 5.01025C378.88 5.01025 389.91 16.0403 389.91 29.6003C389.91 43.1603 378.88 54.1902 365.32 54.1902C351.76 54.1902 340.73 43.1603 340.73 29.6003C340.73 16.0403 351.76 5.01025 365.32 5.01025ZM365.32 1.05029C349.55 1.05029 336.77 13.8303 336.77 29.6003C336.77 45.3703 349.55 58.1501 365.32 58.1501C381.09 58.1501 393.87 45.3703 393.87 29.6003C393.87 13.8303 381.08 1.05029 365.32 1.05029Z" fill="white"/>
<path d="M365.32 16.2803C372.66 16.2803 378.63 22.2503 378.63 29.5903C378.63 36.9303 372.66 42.9001 365.32 42.9001C357.98 42.9001 352.01 36.9303 352.01 29.5903C352.01 22.2503 357.98 16.2803 365.32 16.2803ZM365.32 12.3203C355.78 12.3203 348.05 20.0503 348.05 29.5903C348.05 39.1303 355.78 46.8604 365.32 46.8604C374.86 46.8604 382.59 39.1303 382.59 29.5903C382.59 20.0503 374.86 12.3203 365.32 12.3203Z" fill="white"/>
<path d="M273.39 85.3503C286.95 85.3503 297.98 96.3802 297.98 109.94C297.98 123.5 286.95 134.53 273.39 134.53C259.83 134.53 248.8 123.5 248.8 109.94C248.8 96.3802 259.83 85.3503 273.39 85.3503ZM273.39 81.3901C257.62 81.3901 244.84 94.1702 244.84 109.94C244.84 125.71 257.62 138.49 273.39 138.49C289.16 138.49 301.94 125.71 301.94 109.94C301.94 94.1702 289.15 81.3901 273.39 81.3901Z" fill="white"/>
<path d="M273.39 96.6204C280.73 96.6204 286.7 102.59 286.7 109.93C286.7 117.27 280.73 123.24 273.39 123.24C266.05 123.24 260.08 117.27 260.08 109.93C260.08 102.59 266.05 96.6204 273.39 96.6204ZM273.39 92.6602C263.85 92.6602 256.12 100.39 256.12 109.93C256.12 119.47 263.85 127.2 273.39 127.2C282.93 127.2 290.66 119.47 290.66 109.93C290.66 100.39 282.93 92.6602 273.39 92.6602Z" fill="white"/>
<path d="M321.079 15.6899V18.76C321.079 21.14 319.139 23.0801 316.759 23.0801H313.019C310.639 23.0801 308.699 21.14 308.699 18.76V15.6899H321.079ZM325.039 11.73H304.739V18.76C304.739 23.31 308.469 27.04 313.019 27.04H316.759C321.309 27.04 325.039 23.31 325.039 18.76V11.73Z" fill="white"/>
<path d="M306.739 2.87988V12.8" stroke="white" stroke-width="3.9611" stroke-miterlimit="10" stroke-linecap="round" stroke-linejoin="round"/>
<path d="M314.899 2.87988V12.8" stroke="white" stroke-width="3.9611" stroke-miterlimit="10" stroke-linecap="round" stroke-linejoin="round"/>
<path d="M323.049 2.87988V12.8" stroke="white" stroke-width="3.9611" stroke-miterlimit="10" stroke-linecap="round" stroke-linejoin="round"/>
<path d="M314.899 25.1201V56.3799" stroke="white" stroke-width="3.9611" stroke-miterlimit="10" stroke-linecap="round" stroke-linejoin="round"/>
<path d="M419.63 25.1201V56.3799" stroke="white" stroke-width="3.9611" stroke-miterlimit="10" stroke-linecap="round" stroke-linejoin="round"/>
<path d="M409.62 31.3604C418.63 31.3604 419.63 31.3604 419.63 31.3604V2.97021C419.63 2.97021 409.62 4.37035 409.62 31.3604Z" stroke="white" stroke-width="3.9611" stroke-miterlimit="10" stroke-linecap="round" stroke-linejoin="round"/>
<path d="M345.46 97.8003V100.87C345.46 103.25 343.52 105.19 341.14 105.19H337.4C335.02 105.19 333.08 103.25 333.08 100.87V97.8003H345.46ZM349.42 93.8403H329.12V100.87C329.12 105.42 332.85 109.15 337.4 109.15H341.14C345.69 109.15 349.42 105.42 349.42 100.87V93.8403Z" fill="white"/>
<path d="M331.12 84.9902V94.9102" stroke="white" stroke-width="3.9611" stroke-miterlimit="10" stroke-linecap="round" stroke-linejoin="round"/>
<path d="M339.271 84.9902V94.9102" stroke="white" stroke-width="3.9611" stroke-miterlimit="10" stroke-linecap="round" stroke-linejoin="round"/>
<path d="M347.43 84.9902V94.9102" stroke="white" stroke-width="3.9611" stroke-miterlimit="10" stroke-linecap="round" stroke-linejoin="round"/>
<path d="M339.271 107.23V138.49" stroke="white" stroke-width="3.9611" stroke-miterlimit="10" stroke-linecap="round" stroke-linejoin="round"/>
<path d="M378.739 107.23V138.49" stroke="white" stroke-width="3.9611" stroke-miterlimit="10" stroke-linecap="round" stroke-linejoin="round"/>
<path d="M368.729 113.47C377.739 113.47 378.739 113.47 378.739 113.47V85.0801C378.739 85.0801 368.729 86.48 368.729 113.47Z" stroke="white" stroke-width="3.9611" stroke-miterlimit="10" stroke-linecap="round" stroke-linejoin="round"/>
<path d="M461.03 10.4697C465.77 10.4697 469.66 14.1897 469.87 18.9297C469.87 19.0297 469.88 19.1297 469.9 19.2297V54.3796H447.97V19.2297C447.98 19.1297 447.99 19.0297 448 18.9297C448.22 14.1797 452.1 10.4697 456.84 10.4697H461.03ZM461.03 6.50977H456.84C449.98 6.50977 444.35 11.9698 444.04 18.7498H444V54.3896C444 56.5796 445.77 58.3499 447.96 58.3499H469.89C472.08 58.3499 473.85 56.5796 473.85 54.3896V18.7498H473.82C473.51 11.9598 467.88 6.50977 461.03 6.50977Z" fill="white"/>
<path d="M464.34 0.919922H453.32V10.23H464.34V0.919922Z" fill="white"/>
<path d="M469.89 27.54V37.6699H447.96V27.54H469.89ZM473.86 23.5801H444V41.6299H473.85V23.5801H473.86Z" fill="white"/>
<path d="M35.8393 174.03C40.5793 174.03 44.4693 177.75 44.6793 182.49C44.6793 182.59 44.6893 182.69 44.7093 182.79V217.94H22.7793V182.79C22.7893 182.69 22.7993 182.59 22.8093 182.49C23.0293 177.74 26.9093 174.03 31.6493 174.03H35.8393ZM35.8393 170.07H31.6493C24.7893 170.07 19.1593 175.53 18.8493 182.31H18.8193V217.95C18.8193 220.14 20.5893 221.91 22.7793 221.91H44.7093C46.8993 221.91 48.6693 220.14 48.6693 217.95V182.31H48.6393C48.3293 175.53 42.6993 170.07 35.8393 170.07Z" fill="white"/>
<path d="M39.1597 164.48H28.1396V173.791H39.1597V164.48Z" fill="white"/>
<path d="M44.7093 191.111V201.24H22.7793V191.111H44.7093ZM48.6693 187.15H18.8193V205.2H48.6693V187.15Z" fill="white"/>
<path d="M282.66 4.87988V54.3899H248.8V4.87988H282.66ZM286.62 0.919922H244.84V58.3501H286.62V0.919922Z" fill="white"/>
<path d="M282.66 23.3499V35.0098H248.8V23.3499H282.66ZM286.62 19.3896H244.84V38.9797H286.62V19.3896Z" fill="white"/>
<path d="M210.9 168.44V217.95H177.04V168.44H210.9ZM214.86 164.48H173.08V221.91H214.86V164.48Z" fill="white"/>
<path d="M210.9 186.91V198.57H177.04V186.91H210.9ZM214.86 182.95H173.08V202.54H214.86V182.95Z" fill="white"/>
<path d="M104.469 112.76L101.629 134.04C101.599 134.23 101.269 134.53 101.069 134.53H90.8595C90.6695 134.53 90.3295 134.23 90.2995 134.04L87.4595 112.76H104.469ZM105.039 108.8H86.9095C84.7295 108.8 83.1795 110.57 83.4695 112.73L86.3795 134.57C86.6695 136.73 88.6895 138.5 90.8695 138.5H101.079C103.259 138.5 105.279 136.73 105.559 134.57L108.469 112.73C108.759 110.56 107.219 108.8 105.039 108.8Z" fill="white"/>
<path d="M133.64 84.5901V134.53H119.47V84.5901H133.64ZM133.64 80.6299H119.47C117.29 80.6299 115.51 82.4101 115.51 84.5901V134.53C115.51 136.71 117.29 138.49 119.47 138.49H133.64C135.82 138.49 137.6 136.71 137.6 134.53V84.5901C137.61 82.4101 135.82 80.6299 133.64 80.6299Z" fill="white"/>
<path d="M133.64 103.7V116.81H119.47V103.7H133.64ZM137.61 99.7402H115.52V120.77H137.61V99.7402Z" fill="white"/>
<path d="M266.189 196.18L263.349 217.46C263.319 217.65 262.989 217.95 262.789 217.95H252.579C252.389 217.95 252.049 217.65 252.019 217.46L249.179 196.18H266.189ZM266.749 192.22H248.619C246.439 192.22 244.889 193.99 245.179 196.15L248.089 217.99C248.379 220.15 250.399 221.92 252.579 221.92H262.789C264.969 221.92 266.989 220.15 267.269 217.99L270.179 196.15C270.479 193.99 268.929 192.22 266.749 192.22Z" fill="white"/>
<path d="M295.359 168.01V217.95H281.189V168.01H295.359ZM295.359 164.05H281.189C279.009 164.05 277.229 165.83 277.229 168.01V217.95C277.229 220.13 279.009 221.91 281.189 221.91H295.359C297.539 221.91 299.319 220.13 299.319 217.95V168.01C299.319 165.84 297.539 164.05 295.359 164.05Z" fill="white"/>
<path d="M295.359 187.13V200.24H281.189V187.13H295.359ZM299.319 183.17H277.229V204.2H299.319V183.17Z" fill="white"/>
<path d="M109.429 108.8H82.5193C81.9793 108.8 81.5293 109.25 81.5293 109.79V111.86C81.5293 112.4 81.9793 112.85 82.5193 112.85H109.429C109.969 112.85 110.419 112.4 110.419 111.86V109.79C110.419 109.24 109.969 108.8 109.429 108.8Z" fill="white"/>
</svg>
