<svg width="160" height="56" viewBox="0 0 24 24" fill="none" xmlns="http://www.w3.org/2000/svg">
<path d="M14.8879 11.4453C13.9606 10.7849 12.682 10.9863 12.0005 11.8902C11.3191 10.9886 10.0405 10.7849 9.11317 11.4453C8.17178 12.1174 7.95166 13.4264 8.62374 14.3678L11.6305 17.5619C11.6985 17.6556 11.8015 17.7188 11.9186 17.7399C11.9443 17.7446 11.9678 17.7493 11.9935 17.7493C11.9959 17.7493 11.9982 17.7493 12.0005 17.7493C12.0029 17.7493 12.0052 17.7493 12.0076 17.7493C12.0333 17.7493 12.0591 17.7446 12.0825 17.7399C12.1996 17.7188 12.305 17.6556 12.3705 17.5619L15.3774 14.3678C16.0494 13.4264 15.8293 12.1174 14.8879 11.4453Z" fill="#93278F"/>
<path fill-rule="evenodd" clip-rule="evenodd" d="M10.3285 3.08603C10.6604 3.26974 10.7806 3.68775 10.5969 4.0197L8.19807 8.35416H15.8019L13.4016 4.01986C13.2178 3.68797 13.3379 3.26992 13.6698 3.08612C14.0017 2.90232 14.4197 3.02238 14.6035 3.35427L17.3724 8.35416H20.2691C21.44 8.35416 22.1964 9.29086 21.9552 10.436L20.2644 18.3722C20.0209 19.5173 18.8641 20.454 17.6932 20.454H6.30759C5.13672 20.454 3.97989 19.5173 3.73635 18.3722L2.04561 10.436C1.80206 9.29086 2.55845 8.35416 3.72933 8.35416H6.62783L9.3948 3.35444C9.57851 3.02249 9.99653 2.90232 10.3285 3.08603ZM16.436 9.49928L17.0548 10.6166C17.2385 10.9485 17.6566 11.0685 17.9885 10.8847C18.3204 10.7009 18.4404 10.2829 18.2566 9.95099L18.0065 9.49928H20.2691C20.4822 9.49928 20.6532 9.56485 20.7515 9.68662C20.8499 9.80605 20.878 9.98871 20.8335 10.1971L19.1427 18.1333C19.0116 18.7492 18.3208 19.3089 17.6908 19.3089H6.30525C5.67766 19.3089 4.9845 18.7492 4.85336 18.1333L3.16262 10.1971C3.11813 9.98871 3.14623 9.80605 3.24458 9.68662C3.34293 9.56719 3.51388 9.49928 3.72698 9.49928H5.99409L5.74401 9.95115C5.56031 10.2831 5.68048 10.7011 6.01242 10.8848C6.34437 11.0685 6.76238 10.9484 6.94609 10.6164L7.56434 9.49928H16.436Z" fill="#93278F"/>
</svg>
