<svg width="120" height="56" viewBox="55 0 35 56" fill="none" xmlns="http://www.w3.org/2000/svg">
<path d="M57.5468 46C57.4535 46 57.3788 45.972 57.3228 45.916C57.2668 45.8507 57.2388 45.7713 57.2388 45.678V36.536C57.2388 36.4333 57.2668 36.354 57.3228 36.298C57.3788 36.2327 57.4535 36.2 57.5468 36.2H60.7108C62.1202 36.2 63.1375 36.5173 63.7628 37.152C64.3882 37.7773 64.7102 38.7247 64.7288 39.994C64.7382 40.2647 64.7428 40.6287 64.7428 41.086C64.7428 41.5433 64.7382 41.912 64.7288 42.192C64.7102 43.0787 64.5655 43.802 64.2948 44.362C64.0335 44.9127 63.6182 45.3233 63.0488 45.594C62.4795 45.8647 61.7235 46 60.7808 46H57.5468ZM60.7108 44.838C61.3642 44.838 61.8822 44.7493 62.2648 44.572C62.6568 44.3853 62.9368 44.1007 63.1048 43.718C63.2822 43.326 63.3802 42.7987 63.3988 42.136C63.4175 41.576 63.4268 41.226 63.4268 41.086C63.4268 40.9367 63.4175 40.5913 63.3988 40.05C63.3802 39.1167 63.1562 38.4353 62.7268 38.006C62.3068 37.5673 61.6115 37.348 60.6408 37.348H58.5548V44.838H60.7108ZM69.6495 46.14C68.6228 46.14 67.8295 45.8507 67.2695 45.272C66.7188 44.6933 66.4248 43.9233 66.3875 42.962L66.3735 42.36L66.3875 41.758C66.4248 40.7967 66.7235 40.0267 67.2835 39.448C67.8528 38.8693 68.6415 38.58 69.6495 38.58C70.6575 38.58 71.4415 38.8693 72.0015 39.448C72.5708 40.0267 72.8742 40.7967 72.9115 41.758C72.9302 41.9633 72.9395 42.164 72.9395 42.36C72.9395 42.556 72.9302 42.7567 72.9115 42.962C72.8742 43.9233 72.5755 44.6933 72.0155 45.272C71.4648 45.8507 70.6762 46.14 69.6495 46.14ZM69.6495 45.09C70.2468 45.09 70.7182 44.9033 71.0635 44.53C71.4182 44.1473 71.6095 43.6013 71.6375 42.892C71.6468 42.7987 71.6515 42.6213 71.6515 42.36C71.6515 42.0987 71.6468 41.9213 71.6375 41.828C71.6095 41.1187 71.4182 40.5773 71.0635 40.204C70.7182 39.8213 70.2468 39.63 69.6495 39.63C69.0522 39.63 68.5762 39.8213 68.2215 40.204C67.8762 40.5773 67.6895 41.1187 67.6615 41.828L67.6475 42.36L67.6615 42.892C67.6895 43.6013 67.8762 44.1473 68.2215 44.53C68.5762 44.9033 69.0522 45.09 69.6495 45.09ZM76.7232 46.14C76.2659 46.14 75.8412 46.0467 75.4492 45.86C75.0666 45.6733 74.7586 45.4213 74.5252 45.104C74.3012 44.7773 74.1892 44.418 74.1892 44.026C74.1892 43.41 74.4412 42.906 74.9452 42.514C75.4492 42.122 76.1352 41.8607 77.0032 41.73L79.1032 41.436V41.03C79.1032 40.0687 78.5479 39.588 77.4372 39.588C77.0079 39.588 76.6626 39.6767 76.4012 39.854C76.1399 40.022 75.9486 40.2227 75.8272 40.456C75.7899 40.5493 75.7479 40.6147 75.7012 40.652C75.6639 40.68 75.6079 40.694 75.5332 40.694H74.9872C74.9032 40.694 74.8286 40.666 74.7632 40.61C74.7072 40.5447 74.6792 40.47 74.6792 40.386C74.6792 40.1713 74.7772 39.924 74.9732 39.644C75.1786 39.3547 75.4912 39.1073 75.9112 38.902C76.3312 38.6873 76.8446 38.58 77.4512 38.58C78.4966 38.58 79.2432 38.8227 79.6912 39.308C80.1486 39.7933 80.3772 40.4 80.3772 41.128V45.678C80.3772 45.7713 80.3446 45.8507 80.2792 45.916C80.2232 45.972 80.1486 46 80.0552 46H79.4392C79.3459 46 79.2712 45.972 79.2152 45.916C79.1592 45.8507 79.1312 45.7713 79.1312 45.678V45.062C78.9259 45.37 78.6272 45.6267 78.2352 45.832C77.8432 46.0373 77.3392 46.14 76.7232 46.14ZM77.0032 45.118C77.6192 45.118 78.1232 44.9173 78.5152 44.516C78.9072 44.1147 79.1032 43.5313 79.1032 42.766V42.374L77.4652 42.612C76.7932 42.7053 76.2846 42.864 75.9392 43.088C75.5939 43.312 75.4212 43.592 75.4212 43.928C75.4212 44.3107 75.5752 44.6047 75.8832 44.81C76.2006 45.0153 76.5739 45.118 77.0032 45.118ZM85.3165 49.08C84.9992 49.08 84.7145 49.01 84.4625 48.87C84.2198 48.7393 84.0985 48.6087 84.0985 48.478C84.0985 48.4313 84.1172 48.394 84.1545 48.366L84.3645 48.17C84.4018 48.1327 84.4438 48.114 84.4905 48.114C84.5278 48.114 84.5932 48.142 84.6865 48.198C84.7798 48.254 84.8685 48.3007 84.9525 48.338C85.0365 48.3753 85.1485 48.394 85.2885 48.394C85.4472 48.394 85.5825 48.3427 85.6945 48.24C85.8065 48.1467 85.8625 48.0207 85.8625 47.862C85.8625 47.7127 85.8065 47.5913 85.6945 47.498C85.5918 47.414 85.4565 47.372 85.2885 47.372C85.1765 47.372 85.0552 47.3907 84.9245 47.428C84.7938 47.4747 84.7052 47.498 84.6585 47.498C84.5745 47.498 84.5092 47.47 84.4625 47.414L84.2245 47.162C84.1965 47.1247 84.1825 47.0827 84.1825 47.036C84.1825 46.9893 84.2152 46.8913 84.2805 46.742L84.5745 46.07C83.7998 45.9393 83.1978 45.6033 82.7685 45.062C82.3392 44.5113 82.1152 43.7973 82.0965 42.92L82.0825 42.36L82.0965 41.8C82.1245 40.7827 82.4185 39.994 82.9785 39.434C83.5385 38.8647 84.3178 38.58 85.3165 38.58C85.9885 38.58 86.5532 38.7013 87.0105 38.944C87.4772 39.1773 87.8225 39.4713 88.0465 39.826C88.2798 40.1807 88.4058 40.5353 88.4245 40.89C88.4338 40.974 88.4012 41.0487 88.3265 41.114C88.2612 41.1793 88.1865 41.212 88.1025 41.212H87.4865C87.3932 41.212 87.3232 41.1933 87.2765 41.156C87.2298 41.1093 87.1832 41.03 87.1365 40.918C86.9685 40.4607 86.7352 40.1387 86.4365 39.952C86.1472 39.756 85.7785 39.658 85.3305 39.658C84.7425 39.658 84.2758 39.84 83.9305 40.204C83.5852 40.568 83.3985 41.1233 83.3705 41.87L83.3565 42.36L83.3705 42.85C83.3985 43.5967 83.5852 44.152 83.9305 44.516C84.2758 44.88 84.7425 45.062 85.3305 45.062C85.7878 45.062 86.1612 44.9687 86.4505 44.782C86.7398 44.586 86.9685 44.2593 87.1365 43.802C87.1832 43.69 87.2298 43.6153 87.2765 43.578C87.3232 43.5313 87.3932 43.508 87.4865 43.508H88.1025C88.1865 43.508 88.2612 43.5407 88.3265 43.606C88.4012 43.6713 88.4338 43.746 88.4245 43.83C88.4058 44.1753 88.2845 44.5253 88.0605 44.88C87.8365 45.2347 87.4912 45.5333 87.0245 45.776C86.5672 46.0187 86.0072 46.14 85.3445 46.14L85.0225 46.784C85.1438 46.7093 85.3165 46.672 85.5405 46.672C85.8578 46.672 86.1145 46.7793 86.3105 46.994C86.5158 47.218 86.6185 47.5027 86.6185 47.848C86.6185 48.2027 86.5065 48.4967 86.2825 48.73C86.0585 48.9633 85.7365 49.08 85.3165 49.08ZM93.0558 46.14C92.0291 46.14 91.2358 45.8507 90.6758 45.272C90.1251 44.6933 89.8311 43.9233 89.7938 42.962L89.7798 42.36L89.7938 41.758C89.8311 40.7967 90.1298 40.0267 90.6898 39.448C91.2591 38.8693 92.0478 38.58 93.0558 38.58C94.0638 38.58 94.8478 38.8693 95.4078 39.448C95.9771 40.0267 96.2804 40.7967 96.3178 41.758C96.3364 41.9633 96.3458 42.164 96.3458 42.36C96.3458 42.556 96.3364 42.7567 96.3178 42.962C96.2804 43.9233 95.9818 44.6933 95.4218 45.272C94.8711 45.8507 94.0824 46.14 93.0558 46.14ZM93.0558 45.09C93.6531 45.09 94.1244 44.9033 94.4698 44.53C94.8244 44.1473 95.0158 43.6013 95.0438 42.892C95.0531 42.7987 95.0578 42.6213 95.0578 42.36C95.0578 42.0987 95.0531 41.9213 95.0438 41.828C95.0158 41.1187 94.8244 40.5773 94.4698 40.204C94.1244 39.8213 93.6531 39.63 93.0558 39.63C92.4584 39.63 91.9824 39.8213 91.6278 40.204C91.2824 40.5773 91.0958 41.1187 91.0678 41.828L91.0538 42.36L91.0678 42.892C91.0958 43.6013 91.2824 44.1473 91.6278 44.53C91.9824 44.9033 92.4584 45.09 93.0558 45.09ZM93.7698 37.74C93.6018 37.74 93.4618 37.7167 93.3498 37.67C93.2378 37.6233 93.1024 37.5533 92.9438 37.46C92.8598 37.4133 92.7758 37.3713 92.6918 37.334C92.6078 37.2873 92.5238 37.264 92.4398 37.264C92.3651 37.264 92.3044 37.2827 92.2578 37.32C92.2111 37.3573 92.1644 37.4087 92.1178 37.474C92.0431 37.6047 91.9544 37.67 91.8518 37.67H91.4178C91.3524 37.67 91.2964 37.6467 91.2498 37.6C91.2124 37.5533 91.1938 37.502 91.1938 37.446C91.1938 37.138 91.2964 36.858 91.5018 36.606C91.7164 36.354 91.9964 36.228 92.3418 36.228C92.5098 36.228 92.6498 36.2513 92.7618 36.298C92.8738 36.3447 93.0091 36.4147 93.1678 36.508C93.1864 36.5173 93.2471 36.5547 93.3498 36.62C93.4524 36.676 93.5598 36.704 93.6718 36.704C93.7558 36.704 93.8164 36.6853 93.8538 36.648C93.9004 36.6107 93.9471 36.5547 93.9938 36.48C94.0404 36.4053 94.0824 36.354 94.1198 36.326C94.1571 36.298 94.2084 36.284 94.2738 36.284H94.6938C94.7684 36.284 94.8244 36.3073 94.8618 36.354C94.9084 36.4007 94.9318 36.452 94.9318 36.508C94.9318 36.816 94.8244 37.1007 94.6098 37.362C94.3951 37.614 94.1151 37.74 93.7698 37.74ZM100.997 46.14C100.045 46.14 99.2848 45.846 98.7155 45.258C98.1461 44.6607 97.8335 43.8487 97.7775 42.822L97.7635 42.346L97.7775 41.884C97.8335 40.876 98.1461 40.0733 98.7155 39.476C99.2848 38.8787 100.045 38.58 100.997 38.58C102.024 38.58 102.817 38.9067 103.377 39.56C103.947 40.2133 104.231 41.1 104.231 42.22V42.472C104.231 42.5653 104.199 42.6447 104.133 42.71C104.077 42.766 104.003 42.794 103.909 42.794H99.0515V42.92C99.0795 43.5267 99.2661 44.0447 99.6115 44.474C99.9568 44.9033 100.414 45.118 100.983 45.118C101.422 45.118 101.777 45.034 102.047 44.866C102.327 44.6887 102.537 44.5067 102.677 44.32C102.761 44.208 102.827 44.1427 102.873 44.124C102.92 44.096 102.999 44.082 103.111 44.082H103.727C103.811 44.082 103.881 44.1053 103.937 44.152C104.003 44.1987 104.035 44.2593 104.035 44.334C104.035 44.5393 103.909 44.7867 103.657 45.076C103.405 45.3653 103.046 45.6173 102.579 45.832C102.122 46.0373 101.595 46.14 100.997 46.14ZM102.957 41.842V41.8C102.957 41.1467 102.78 40.6147 102.425 40.204C102.071 39.7933 101.595 39.588 100.997 39.588C100.391 39.588 99.9148 39.7933 99.5695 40.204C99.2241 40.6147 99.0515 41.1467 99.0515 41.8V41.842H102.957ZM108.426 46.14C107.782 46.14 107.236 46.0373 106.788 45.832C106.349 45.6173 106.022 45.3747 105.808 45.104C105.593 44.8333 105.486 44.6093 105.486 44.432C105.486 44.3387 105.518 44.2687 105.584 44.222C105.649 44.166 105.719 44.138 105.794 44.138H106.382C106.438 44.138 106.48 44.1473 106.508 44.166C106.545 44.1847 106.592 44.2267 106.648 44.292C106.862 44.5533 107.1 44.7587 107.362 44.908C107.632 45.0573 107.992 45.132 108.44 45.132C108.944 45.132 109.345 45.0387 109.644 44.852C109.952 44.6653 110.106 44.3947 110.106 44.04C110.106 43.8067 110.04 43.62 109.91 43.48C109.779 43.34 109.56 43.214 109.252 43.102C108.953 42.99 108.505 42.8687 107.908 42.738C107.096 42.5607 106.522 42.304 106.186 41.968C105.85 41.632 105.682 41.198 105.682 40.666C105.682 40.3207 105.784 39.9893 105.99 39.672C106.195 39.3453 106.498 39.084 106.9 38.888C107.31 38.6827 107.796 38.58 108.356 38.58C108.944 38.58 109.443 38.678 109.854 38.874C110.274 39.07 110.586 39.2987 110.792 39.56C111.006 39.8213 111.114 40.0407 111.114 40.218C111.114 40.302 111.081 40.372 111.016 40.428C110.96 40.484 110.89 40.512 110.806 40.512H110.274C110.143 40.512 110.05 40.4607 109.994 40.358C109.835 40.1807 109.7 40.0453 109.588 39.952C109.485 39.8493 109.331 39.7653 109.126 39.7C108.92 39.6253 108.664 39.588 108.356 39.588C107.898 39.588 107.548 39.686 107.306 39.882C107.063 40.0687 106.942 40.3207 106.942 40.638C106.942 40.834 106.993 41.002 107.096 41.142C107.198 41.2727 107.394 41.3987 107.684 41.52C107.973 41.632 108.402 41.7487 108.972 41.87C109.858 42.0567 110.484 42.3227 110.848 42.668C111.221 43.0133 111.408 43.4567 111.408 43.998C111.408 44.3993 111.291 44.7633 111.058 45.09C110.834 45.4167 110.493 45.6733 110.036 45.86C109.588 46.0467 109.051 46.14 108.426 46.14Z" fill="#93278F"/>
<path d="M86.8877 17.4453C85.9603 16.7849 84.6818 16.9863 84.0003 17.8902C83.3189 16.9886 82.0403 16.7849 81.1129 17.4453C80.1715 18.1174 79.9514 19.4264 80.6235 20.3678L83.6303 23.5619C83.6982 23.6556 83.8013 23.7188 83.9183 23.7399C83.9441 23.7446 83.9675 23.7493 83.9933 23.7493C83.9956 23.7493 83.998 23.7493 84.0003 23.7493C84.0026 23.7493 84.005 23.7493 84.0073 23.7493C84.0331 23.7493 84.0588 23.7446 84.0823 23.7399C84.1994 23.7188 84.3047 23.6556 84.3703 23.5619L87.3771 20.3678C88.0492 19.4264 87.8291 18.1174 86.8877 17.4453Z" fill="#93278F"/>
<path fill-rule="evenodd" clip-rule="evenodd" d="M82.3285 9.08603C82.6604 9.26974 82.7806 9.68775 82.5969 10.0197L80.1981 14.3542H87.8019L85.4016 10.0199C85.2178 9.68797 85.3379 9.26992 85.6698 9.08612C86.0017 8.90232 86.4197 9.02238 86.6035 9.35427L89.3724 14.3542H92.2691C93.44 14.3542 94.1964 15.2909 93.9552 16.436L92.2644 24.3722C92.0209 25.5173 90.8641 26.454 89.6932 26.454H78.3076C77.1367 26.454 75.9799 25.5173 75.7364 24.3722L74.0456 16.436C73.8021 15.2909 74.5585 14.3542 75.7293 14.3542H78.6278L81.3948 9.35444C81.5785 9.02249 81.9965 8.90232 82.3285 9.08603ZM88.436 15.4993L89.0548 16.6166C89.2385 16.9485 89.6566 17.0685 89.9885 16.8847C90.3204 16.7009 90.4404 16.2829 90.2566 15.951L90.0065 15.4993H92.2691C92.4822 15.4993 92.6532 15.5648 92.7515 15.6866C92.8499 15.806 92.878 15.9887 92.8335 16.1971L91.1427 24.1333C91.0116 24.7492 90.3208 25.3089 89.6908 25.3089H78.3053C77.6777 25.3089 76.9845 24.7492 76.8534 24.1333L75.1626 16.1971C75.1181 15.9887 75.1462 15.806 75.2446 15.6866C75.3429 15.5672 75.5139 15.4993 75.727 15.4993H77.9941L77.744 15.9512C77.5603 16.2831 77.6805 16.7011 78.0124 16.8848C78.3444 17.0685 78.7624 16.9484 78.9461 16.6164L79.5643 15.4993H88.436Z" fill="#93278F"/>
</svg>
