<svg width="168" height="56" viewBox="0 0 168 56" fill="none" xmlns="http://www.w3.org/2000/svg">
<g opacity="0.3">
<path d="M86.8879 27.4454C85.9606 26.785 84.682 26.9864 84.0005 27.8903C83.3191 26.9888 82.0405 26.785 81.1132 27.4454C80.1718 28.1175 79.9517 29.4265 80.6237 30.3679L83.6305 33.5621C83.6985 33.6557 83.8015 33.719 83.9186 33.74C83.9443 33.7447 83.9678 33.7494 83.9935 33.7494C83.9959 33.7494 83.9982 33.7494 84.0005 33.7494C84.0029 33.7494 84.0052 33.7494 84.0076 33.7494C84.0333 33.7494 84.0591 33.7447 84.0825 33.74C84.1996 33.719 84.305 33.6557 84.3705 33.5621L87.3774 30.3679C88.0494 29.4265 87.8293 28.1175 86.8879 27.4454Z" fill="#93278F"/>
<path fill-rule="evenodd" clip-rule="evenodd" d="M82.3285 19.086C82.6604 19.2697 82.7806 19.6878 82.5969 20.0197L80.1981 24.3542H87.8019L85.4016 20.0199C85.2178 19.688 85.3379 19.2699 85.6698 19.0861C86.0017 18.9023 86.4197 19.0224 86.6035 19.3543L89.3724 24.3542H92.2691C93.44 24.3542 94.1964 25.2909 93.9552 26.436L92.2644 34.3722C92.0209 35.5173 90.8641 36.454 89.6932 36.454H78.3076C77.1367 36.454 75.9799 35.5173 75.7364 34.3722L74.0456 26.436C73.8021 25.2909 74.5585 24.3542 75.7293 24.3542H78.6278L81.3948 19.3544C81.5785 19.0225 81.9965 18.9023 82.3285 19.086ZM88.436 25.4993L89.0548 26.6166C89.2385 26.9485 89.6566 27.0685 89.9885 26.8847C90.3204 26.7009 90.4404 26.2829 90.2566 25.951L90.0065 25.4993H92.2691C92.4822 25.4993 92.6532 25.5648 92.7515 25.6866C92.8499 25.806 92.878 25.9887 92.8335 26.1971L91.1427 34.1333C91.0116 34.7492 90.3208 35.3089 89.6908 35.3089H78.3053C77.6777 35.3089 76.9845 34.7492 76.8534 34.1333L75.1626 26.1971C75.1181 25.9887 75.1462 25.806 75.2446 25.6866C75.3429 25.5672 75.5139 25.4993 75.727 25.4993H77.9941L77.744 25.9512C77.5603 26.2831 77.6805 26.7011 78.0124 26.8848C78.3444 27.0685 78.7624 26.9484 78.9461 26.6164L79.5643 25.4993H88.436Z" fill="#93278F"/>
</g>
</svg>
