<svg width="150" height="56" viewBox="0 0 24 24" fill="none" xmlns="http://www.w3.org/2000/svg">
<path fill-rule="evenodd" clip-rule="evenodd" d="M20.8 20C21.0209 20 21.2 19.8209 21.2 19.6V8.4V6C21.2 5.77909 21.0209 5.6 20.8 5.6H9.19926C9.08458 5.6 8.88272 5.51704 8.80414 5.43846L7.76154 4.39586C7.53322 4.16754 7.13001 4 6.8072 4L2.4 4C2.17909 4 2 4.17909 2 4.4V8.4V19.6C2 19.8209 2.17909 20 2.4 20H20.8ZM20.4 8H2.8V4.8H6.8072C6.91752 4.8 7.11734 4.88303 7.19586 4.96154L8.23846 6.00414C8.46763 6.23331 8.87319 6.4 9.19926 6.4H20.4V8ZM20.4 8.8V19.2H2.8V8.8H20.4Z" fill="#93278F"/>
<path fill-rule="evenodd" clip-rule="evenodd" d="M6.7998 16.4002V11.6002C6.7998 11.3793 6.97889 11.2002 7.1998 11.2002H15.9998C16.2207 11.2002 16.3998 11.3793 16.3998 11.6002V16.4002C16.3998 16.6211 16.2207 16.8002 15.9998 16.8002H7.1998C6.97889 16.8002 6.7998 16.6211 6.7998 16.4002ZM11.5998 16H15.5998V16.0002H11.5998V16ZM10.7998 16H7.5998V16.0002H10.7998V16Z" fill="#93278F"/>
</svg>
