<svg width="96" height="56" viewBox="0 0 96 56" fill="none" xmlns="http://www.w3.org/2000/svg">
<g opacity="0.7">
<path fill-rule="evenodd" clip-rule="evenodd" d="M56.8 36C57.0209 36 57.2 35.8209 57.2 35.6V24.4V22C57.2 21.7791 57.0209 21.6 56.8 21.6H45.1993C45.0846 21.6 44.8827 21.517 44.8041 21.4385L43.7615 20.3959C43.5332 20.1675 43.13 20 42.8072 20L38.4 20C38.1791 20 38 20.1791 38 20.4V24.4V35.6C38 35.8209 38.1791 36 38.4 36H56.8ZM56.4 24H38.8V20.8H42.8072C42.9175 20.8 43.1173 20.883 43.1959 20.9615L44.2385 22.0041C44.4676 22.2333 44.8732 22.4 45.1993 22.4H56.4V24ZM56.4 24.8V35.2H38.8V24.8H56.4Z" fill="#93278F" fill-opacity="0.3"/>
<path fill-rule="evenodd" clip-rule="evenodd" d="M42.7998 32.4002V27.6002C42.7998 27.3793 42.9789 27.2002 43.1998 27.2002H51.9998C52.2207 27.2002 52.3998 27.3793 52.3998 27.6002V32.4002C52.3998 32.6211 52.2207 32.8002 51.9998 32.8002H43.1998C42.9789 32.8002 42.7998 32.6211 42.7998 32.4002ZM47.5998 32H51.5998V32.0002H47.5998V32ZM46.7998 32H43.5998V32.0002H46.7998V32Z" fill="#93278F" fill-opacity="0.3"/>
</g>
</svg>
