<svg width="120" height="56" viewBox="55 0 45 56" fill="none" xmlns="http://www.w3.org/2000/svg">
<path d="M66.105 46.14C64.8637 46.14 63.9164 45.804 63.263 45.132C62.619 44.4507 62.2737 43.522 62.227 42.346C62.2177 42.094 62.213 41.6833 62.213 41.114C62.213 40.5353 62.2177 40.1153 62.227 39.854C62.2737 38.678 62.619 37.754 63.263 37.082C63.9164 36.4007 64.8637 36.06 66.105 36.06C66.9357 36.06 67.6404 36.2093 68.219 36.508C68.7977 36.7973 69.2317 37.18 69.521 37.656C69.8197 38.132 69.983 38.6407 70.011 39.182C70.011 39.266 69.9784 39.336 69.913 39.392C69.857 39.4387 69.787 39.462 69.703 39.462H69.003C68.9097 39.462 68.835 39.4387 68.779 39.392C68.723 39.3453 68.681 39.266 68.653 39.154C68.4944 38.4353 68.205 37.9313 67.785 37.642C67.3744 37.3527 66.8144 37.208 66.105 37.208C64.481 37.208 63.6364 38.1133 63.571 39.924C63.5617 40.176 63.557 40.5633 63.557 41.086C63.557 41.6087 63.5617 42.0053 63.571 42.276C63.6364 44.0773 64.481 44.978 66.105 44.978C66.805 44.978 67.365 44.8333 67.785 44.544C68.205 44.2547 68.4944 43.7553 68.653 43.046C68.681 42.934 68.723 42.8547 68.779 42.808C68.835 42.7613 68.9097 42.738 69.003 42.738H69.703C69.787 42.738 69.857 42.766 69.913 42.822C69.9784 42.8687 70.011 42.934 70.011 43.018C69.983 43.5593 69.8197 44.068 69.521 44.544C69.2317 45.02 68.7977 45.4073 68.219 45.706C67.6404 45.9953 66.9357 46.14 66.105 46.14ZM73.7496 46.14C73.2923 46.14 72.8676 46.0467 72.4756 45.86C72.0929 45.6733 71.7849 45.4213 71.5516 45.104C71.3276 44.7773 71.2156 44.418 71.2156 44.026C71.2156 43.41 71.4676 42.906 71.9716 42.514C72.4756 42.122 73.1616 41.8607 74.0296 41.73L76.1296 41.436V41.03C76.1296 40.0687 75.5743 39.588 74.4636 39.588C74.0343 39.588 73.6889 39.6767 73.4276 39.854C73.1663 40.022 72.9749 40.2227 72.8536 40.456C72.8163 40.5493 72.7743 40.6147 72.7276 40.652C72.6903 40.68 72.6343 40.694 72.5596 40.694H72.0136C71.9296 40.694 71.8549 40.666 71.7896 40.61C71.7336 40.5447 71.7056 40.47 71.7056 40.386C71.7056 40.1713 71.8036 39.924 71.9996 39.644C72.2049 39.3547 72.5176 39.1073 72.9376 38.902C73.3576 38.6873 73.8709 38.58 74.4776 38.58C75.5229 38.58 76.2696 38.8227 76.7176 39.308C77.1749 39.7933 77.4036 40.4 77.4036 41.128V45.678C77.4036 45.7713 77.3709 45.8507 77.3056 45.916C77.2496 45.972 77.1749 46 77.0816 46H76.4656C76.3723 46 76.2976 45.972 76.2416 45.916C76.1856 45.8507 76.1576 45.7713 76.1576 45.678V45.062C75.9523 45.37 75.6536 45.6267 75.2616 45.832C74.8696 46.0373 74.3656 46.14 73.7496 46.14ZM74.0296 45.118C74.6456 45.118 75.1496 44.9173 75.5416 44.516C75.9336 44.1147 76.1296 43.5313 76.1296 42.766V42.374L74.4916 42.612C73.8196 42.7053 73.3109 42.864 72.9656 43.088C72.6203 43.312 72.4476 43.592 72.4476 43.928C72.4476 44.3107 72.6016 44.6047 72.9096 44.81C73.2269 45.0153 73.6003 45.118 74.0296 45.118ZM79.7529 46C79.6595 46 79.5802 45.972 79.5149 45.916C79.4589 45.8507 79.4309 45.7713 79.4309 45.678V39.056C79.4309 38.9627 79.4589 38.8833 79.5149 38.818C79.5802 38.7527 79.6595 38.72 79.7529 38.72H80.3409C80.4435 38.72 80.5229 38.7527 80.5789 38.818C80.6442 38.874 80.6769 38.9533 80.6769 39.056V39.672C81.0595 39.0373 81.7082 38.72 82.6229 38.72H83.1689C83.2715 38.72 83.3509 38.748 83.4069 38.804C83.4629 38.86 83.4909 38.9393 83.4909 39.042V39.56C83.4909 39.6533 83.4629 39.7327 83.4069 39.798C83.3509 39.854 83.2715 39.882 83.1689 39.882H82.3709C81.8575 39.882 81.4515 40.0313 81.1529 40.33C80.8635 40.6287 80.7189 41.0347 80.7189 41.548V45.678C80.7189 45.7713 80.6862 45.8507 80.6209 45.916C80.5555 45.972 80.4762 46 80.3829 46H79.7529ZM87.4981 49.08C86.7235 49.08 86.1028 48.9493 85.6361 48.688C85.1695 48.4267 84.8381 48.128 84.6421 47.792C84.4555 47.456 84.3621 47.1667 84.3621 46.924C84.3621 46.84 84.3948 46.7653 84.4601 46.7C84.5255 46.644 84.6001 46.616 84.6841 46.616H85.3001C85.3841 46.616 85.4541 46.6347 85.5101 46.672C85.5661 46.7187 85.6128 46.798 85.6501 46.91C85.9115 47.6567 86.5041 48.03 87.4281 48.03C88.1281 48.03 88.6461 47.8807 88.9821 47.582C89.3181 47.2833 89.4861 46.756 89.4861 46V45.034C88.9448 45.7247 88.1888 46.07 87.2181 46.07C86.2288 46.07 85.4868 45.7527 84.9921 45.118C84.5068 44.4833 84.2501 43.6807 84.2221 42.71L84.2081 42.318L84.2221 41.94C84.2501 40.9787 84.5068 40.1807 84.9921 39.546C85.4868 38.902 86.2288 38.58 87.2181 38.58C88.1981 38.58 88.9635 38.9393 89.5141 39.658V39.056C89.5141 38.9627 89.5421 38.8833 89.5981 38.818C89.6635 38.7527 89.7428 38.72 89.8361 38.72H90.4381C90.5315 38.72 90.6061 38.7527 90.6621 38.818C90.7275 38.8833 90.7601 38.9627 90.7601 39.056V45.846C90.7601 48.002 89.6728 49.08 87.4981 49.08ZM87.4701 44.978C88.1235 44.978 88.6135 44.768 88.9401 44.348C89.2761 43.9187 89.4581 43.4053 89.4861 42.808C89.4955 42.724 89.5001 42.5607 89.5001 42.318C89.5001 42.0847 89.4955 41.926 89.4861 41.842C89.4581 41.2447 89.2761 40.736 88.9401 40.316C88.6135 39.8867 88.1235 39.672 87.4701 39.672C86.7981 39.672 86.3081 39.8867 86.0001 40.316C85.7015 40.736 85.5381 41.282 85.5101 41.954L85.4961 42.318L85.5101 42.696C85.5381 43.368 85.7015 43.9187 86.0001 44.348C86.3081 44.768 86.7981 44.978 87.4701 44.978ZM94.8863 46.14C94.429 46.14 94.0043 46.0467 93.6123 45.86C93.2296 45.6733 92.9216 45.4213 92.6883 45.104C92.4643 44.7773 92.3523 44.418 92.3523 44.026C92.3523 43.41 92.6043 42.906 93.1083 42.514C93.6123 42.122 94.2983 41.8607 95.1663 41.73L97.2663 41.436V41.03C97.2663 40.0687 96.711 39.588 95.6003 39.588C95.171 39.588 94.8256 39.6767 94.5643 39.854C94.303 40.022 94.1116 40.2227 93.9903 40.456C93.953 40.5493 93.911 40.6147 93.8643 40.652C93.827 40.68 93.771 40.694 93.6963 40.694H93.1503C93.0663 40.694 92.9916 40.666 92.9263 40.61C92.8703 40.5447 92.8423 40.47 92.8423 40.386C92.8423 40.1713 92.9403 39.924 93.1363 39.644C93.3416 39.3547 93.6543 39.1073 94.0743 38.902C94.4943 38.6873 95.0076 38.58 95.6143 38.58C96.6596 38.58 97.4063 38.8227 97.8543 39.308C98.3116 39.7933 98.5403 40.4 98.5403 41.128V45.678C98.5403 45.7713 98.5076 45.8507 98.4423 45.916C98.3863 45.972 98.3116 46 98.2183 46H97.6023C97.509 46 97.4343 45.972 97.3783 45.916C97.3223 45.8507 97.2943 45.7713 97.2943 45.678V45.062C97.089 45.37 96.7903 45.6267 96.3983 45.832C96.0063 46.0373 95.5023 46.14 94.8863 46.14ZM95.1663 45.118C95.7823 45.118 96.2863 44.9173 96.6783 44.516C97.0703 44.1147 97.2663 43.5313 97.2663 42.766V42.374L95.6283 42.612C94.9563 42.7053 94.4476 42.864 94.1023 43.088C93.757 43.312 93.5843 43.592 93.5843 43.928C93.5843 44.3107 93.7383 44.6047 94.0463 44.81C94.3636 45.0153 94.737 45.118 95.1663 45.118ZM103.06 46.14C102.416 46.14 101.87 46.0373 101.422 45.832C100.983 45.6173 100.656 45.3747 100.442 45.104C100.227 44.8333 100.12 44.6093 100.12 44.432C100.12 44.3387 100.152 44.2687 100.218 44.222C100.283 44.166 100.353 44.138 100.428 44.138H101.016C101.072 44.138 101.114 44.1473 101.142 44.166C101.179 44.1847 101.226 44.2267 101.282 44.292C101.496 44.5533 101.734 44.7587 101.996 44.908C102.266 45.0573 102.626 45.132 103.074 45.132C103.578 45.132 103.979 45.0387 104.278 44.852C104.586 44.6653 104.74 44.3947 104.74 44.04C104.74 43.8067 104.674 43.62 104.544 43.48C104.413 43.34 104.194 43.214 103.886 43.102C103.587 42.99 103.139 42.8687 102.542 42.738C101.73 42.5607 101.156 42.304 100.82 41.968C100.484 41.632 100.316 41.198 100.316 40.666C100.316 40.3207 100.418 39.9893 100.624 39.672C100.829 39.3453 101.132 39.084 101.534 38.888C101.944 38.6827 102.43 38.58 102.99 38.58C103.578 38.58 104.077 38.678 104.488 38.874C104.908 39.07 105.22 39.2987 105.426 39.56C105.64 39.8213 105.748 40.0407 105.748 40.218C105.748 40.302 105.715 40.372 105.65 40.428C105.594 40.484 105.524 40.512 105.44 40.512H104.908C104.777 40.512 104.684 40.4607 104.628 40.358C104.469 40.1807 104.334 40.0453 104.222 39.952C104.119 39.8493 103.965 39.7653 103.76 39.7C103.554 39.6253 103.298 39.588 102.99 39.588C102.532 39.588 102.182 39.686 101.94 39.882C101.697 40.0687 101.576 40.3207 101.576 40.638C101.576 40.834 101.627 41.002 101.73 41.142C101.832 41.2727 102.028 41.3987 102.318 41.52C102.607 41.632 103.036 41.7487 103.606 41.87C104.492 42.0567 105.118 42.3227 105.482 42.668C105.855 43.0133 106.042 43.4567 106.042 43.998C106.042 44.3993 105.925 44.7633 105.692 45.09C105.468 45.4167 105.127 45.6733 104.67 45.86C104.222 46.0467 103.685 46.14 103.06 46.14Z" fill="#93278F"/>
<path fill-rule="evenodd" clip-rule="evenodd" d="M93.8 29C94.0209 29 94.2 28.8209 94.2 28.6V17.4V15C94.2 14.7791 94.0209 14.6 93.8 14.6H82.1993C82.0846 14.6 81.8827 14.517 81.8041 14.4385L80.7615 13.3959C80.5332 13.1675 80.13 13 79.8072 13L75.4 13C75.1791 13 75 13.1791 75 13.4V17.4V28.6C75 28.8209 75.1791 29 75.4 29H93.8ZM93.4 17H75.8V13.8H79.8072C79.9175 13.8 80.1173 13.883 80.1959 13.9615L81.2385 15.0041C81.4676 15.2333 81.8732 15.4 82.1993 15.4H93.4V17ZM93.4 17.8V28.2H75.8V17.8H93.4Z" fill="#93278F"/>
<path fill-rule="evenodd" clip-rule="evenodd" d="M79.7998 20.6001V25.4001C79.7998 25.621 79.9789 25.8001 80.1998 25.8001H88.9998C89.2207 25.8001 89.3998 25.621 89.3998 25.4001V20.6001C89.3998 20.3792 89.2207 20.2001 88.9998 20.2001H80.1998C79.9789 20.2001 79.7998 20.3792 79.7998 20.6001ZM80.5998 21.0001H83.7998V22.6001H80.5998V21.0001ZM80.5998 23.4001H83.7998V25.0001H80.5998V23.4001ZM84.5998 21.0001H88.5998V22.6001H84.5998V21.0001ZM84.5998 23.4001H88.5998V25.0001H84.5998V23.4001Z" fill="#93278F"/>
<rect x="80" y="21" width="9" height="4" fill="#93278F"/>
</svg>
