<svg width="14" height="12" viewBox="0 0 14 12" fill="none" xmlns="http://www.w3.org/2000/svg">
<path d="M12.3335 0.666748H1.66683C0.933496 0.666748 0.340163 1.26675 0.340163 2.00008L0.333496 10.0001C0.333496 10.7334 0.933496 11.3334 1.66683 11.3334H12.3335C13.0668 11.3334 13.6668 10.7334 13.6668 10.0001V2.00008C13.6668 1.26675 13.0668 0.666748 12.3335 0.666748ZM11.6668 10.0001H2.3335C1.96683 10.0001 1.66683 9.70008 1.66683 9.33341V3.33341L6.2935 6.22675C6.72683 6.50008 7.2735 6.50008 7.70683 6.22675L12.3335 3.33341V9.33341C12.3335 9.70008 12.0335 10.0001 11.6668 10.0001ZM7.00016 5.33341L1.66683 2.00008H12.3335L7.00016 5.33341Z" fill="#93278F"/>
</svg>
