<svg width="170" height="170" viewBox="0 0 170 170" fill="none" xmlns="http://www.w3.org/2000/svg">
<circle cx="85" cy="85" r="85" fill="#EFEFEF"/>
<path d="M92.4603 83.567C90.0647 81.861 86.7617 82.3813 85.0013 84.7164C83.2408 82.3873 79.9378 81.861 77.5422 83.567C75.1103 85.3032 74.5416 88.6849 76.2778 91.1168L84.0454 99.3684C84.2209 99.6103 84.487 99.7737 84.7895 99.8281C84.8561 99.8402 84.9166 99.8523 84.9831 99.8523C84.9892 99.8523 84.9952 99.8523 85.0013 99.8523C85.0073 99.8523 85.0133 99.8523 85.0194 99.8523C85.0859 99.8523 85.1525 99.8402 85.213 99.8281C85.5155 99.7737 85.7877 99.6103 85.9571 99.3684L93.7247 91.1168C95.4609 88.6849 94.8922 85.3032 92.4603 83.567Z" fill="#A5A5A5"/>
<path fill-rule="evenodd" clip-rule="evenodd" d="M80.682 61.9722C81.5395 62.4468 81.8499 63.5267 81.3754 64.3842L75.1784 75.5816H94.8216L88.6209 64.3846C88.1461 63.5272 88.4563 62.4473 89.3137 61.9725C90.1711 61.4977 91.251 61.8078 91.7258 62.6652L98.8787 75.5816H106.362C109.387 75.5816 111.341 78.0014 110.718 80.9597L106.35 101.461C105.721 104.42 102.732 106.84 99.7075 106.84H70.2947C67.2699 106.84 64.2815 104.42 63.6523 101.461L59.2846 80.9597C58.6554 78.0014 60.6094 75.5816 63.6342 75.5816H71.122L78.27 62.6656C78.7446 61.8081 79.8244 61.4977 80.682 61.9722ZM96.4598 78.5398L98.0582 81.4261C98.533 82.2835 99.613 82.5937 100.47 82.1189C101.328 81.6441 101.638 80.5641 101.163 79.7067L100.517 78.5398H106.362C106.912 78.5398 107.354 78.7092 107.608 79.0238C107.862 79.3323 107.935 79.8042 107.82 80.3426L103.452 100.844C103.113 102.435 101.329 103.881 99.7014 103.881H70.2886C68.6674 103.881 66.8767 102.435 66.5379 100.844L62.1702 80.3426C62.0552 79.8042 62.1278 79.3323 62.3819 79.0238C62.636 78.7153 63.0776 78.5398 63.6281 78.5398H69.4848L68.8388 79.7071C68.3642 80.5647 68.6747 81.6445 69.5322 82.1191C70.3897 82.5937 71.4696 82.2832 71.9441 81.4257L73.5413 78.5398H96.4598Z" fill="#A5A5A5"/>
</svg>
