<svg width="150" height="56" viewBox="0 0 24 24" fill="none" xmlns="http://www.w3.org/2000/svg">
<path d="M21.0943 14.0211L21.0943 19.1746C21.0943 19.4444 20.8481 19.6899 20.5774 19.6899L3.51698 19.6899C3.2463 19.6899 3.00003 19.4444 3 19.1746L3 14.0211C3.00003 13.7513 3.2463 13.5058 3.51698 13.5058L6.36038 13.5058C6.63351 13.5019 6.88472 13.7489 6.88472 14.0211C6.88472 14.2934 6.63351 14.5403 6.36038 14.5365L4.03396 14.5365L4.03396 18.6593L20.0604 18.6592L20.0604 14.5365L17.734 14.5365C17.4608 14.5403 17.2096 14.2934 17.2096 14.0211C17.2096 13.7489 17.4608 13.502 17.734 13.5058L20.5774 13.5058C20.8601 13.5058 21.0941 13.78 21.0943 14.0211Z" fill="#93278F"/>
<path d="M12.0471 15.2877C11.9275 15.2877 11.7687 15.2156 11.6916 15.1424L7.29716 11.0197C7.09753 10.8272 7.07439 10.5154 7.277 10.291C7.45812 10.0904 7.8114 10.0854 8.00809 10.2709L11.5301 13.5803L11.5301 3.51535C11.5301 3.23072 11.7615 3 12.047 3C12.3326 3 12.564 3.23072 12.564 3.51535L12.564 13.5803L16.086 10.2709C16.2827 10.0854 16.6273 10.0986 16.8171 10.291C17.0175 10.4942 16.9996 10.8302 16.7969 11.0197L12.4025 15.1424C12.2833 15.2635 12.1685 15.2857 12.0471 15.2877Z" fill="#93278F"/>
</svg>
