<svg width="24" height="24" viewBox="0 0 24 24" fill="none" xmlns="http://www.w3.org/2000/svg">
<path d="M14.768 7.45697L17.8761 10.5651H8.5517C7.94572 10.5651 7.47656 11.0538 7.47656 11.6402C7.47656 12.2462 7.96526 12.7154 8.5517 12.7154H17.8957L14.768 15.8235C14.5529 16.0386 14.4552 16.3122 14.4552 16.5859C14.4552 16.8596 14.5529 17.1332 14.768 17.3483C15.198 17.7783 15.8822 17.7783 16.2927 17.3483L21.2384 12.4026C21.6684 11.9726 21.6684 11.2884 21.2384 10.8779L16.2927 5.93222C15.8627 5.50217 15.1785 5.50217 14.768 5.93222C14.3575 6.34273 14.3575 7.02691 14.768 7.45697Z" fill="#202228"/>
<path d="M9.50949 19.2249C9.50949 18.6189 9.02079 18.1497 8.43435 18.1497H5.15028V5.15028H8.43435C9.04034 5.15028 9.50949 4.66158 9.50949 4.07514C9.50949 3.4887 9.02079 3 8.43435 3H4.07514C3.46915 3 3 3.4887 3 4.07514V19.2249C3 19.8309 3.4887 20.3 4.07514 20.3H8.43435C9.04034 20.3 9.50949 19.8113 9.50949 19.2249Z" fill="#202228"/>
</svg>
