<svg width="16" height="16" viewBox="0 0 16 16" fill="none" xmlns="http://www.w3.org/2000/svg">
<path d="M9.84532 4.97127L11.9174 7.04336H5.70114C5.29714 7.04336 4.98438 7.36916 4.98438 7.76012C4.98438 8.16412 5.31018 8.47689 5.70114 8.47689H11.9304L9.84532 10.549C9.70197 10.6923 9.63681 10.8748 9.63681 11.0572C9.63681 11.2397 9.70197 11.4221 9.84532 11.5655C10.132 11.8522 10.5881 11.8522 10.8618 11.5655L14.1589 8.26837C14.4456 7.98167 14.4456 7.52555 14.1589 7.25188L10.8618 3.95477C10.5751 3.66807 10.119 3.66807 9.84532 3.95477C9.57165 4.22845 9.57165 4.68457 9.84532 4.97127Z" fill="#93278F"/>
<path d="M6.33966 12.8166C6.33966 12.4126 6.01386 12.0998 5.6229 12.0998H3.43352V3.43352H5.6229C6.02689 3.43352 6.33966 3.10772 6.33966 2.71676C6.33966 2.3258 6.01386 2 5.6229 2H2.71676C2.31277 2 2 2.3258 2 2.71676V12.8166C2 13.2206 2.3258 13.5333 2.71676 13.5333H5.6229C6.02689 13.5333 6.33966 13.2075 6.33966 12.8166Z" fill="#93278F"/>
</svg>
