<svg width="16" height="16" viewBox="0 0 16 16" fill="none" xmlns="http://www.w3.org/2000/svg">
<path d="M11.743 5.76018H11.5612V4.57068C11.5612 2.60141 9.94783 1 7.96875 1C5.98967 1 4.37627 2.60361 4.37627 4.57068V5.76018H4.19454C3.53411 5.76018 3 6.29104 3 6.94526V14.2673C3 14.9215 3.53411 15.4545 4.19454 15.4545H11.743C12.4012 15.4545 12.9375 14.9215 12.9375 14.2673V6.94526C12.9375 6.29324 12.4012 5.76018 11.743 5.76018ZM5.17189 4.57068C5.17189 3.03976 6.42627 1.79079 7.96875 1.79079C9.51123 1.79079 10.7656 3.03976 10.7656 4.57068V5.76018H5.17189V4.57068ZM12.1419 14.2673C12.1419 14.4831 11.9646 14.6638 11.743 14.6638H4.19454C3.97292 14.6638 3.79562 14.4831 3.79562 14.2673V6.94526C3.79562 6.72939 3.97292 6.55097 4.19454 6.55097H11.743C11.9646 6.55097 12.1419 6.72939 12.1419 6.94526V14.2673Z" fill="#93278F" stroke="#93278F" stroke-width="0.5"/>
<path d="M7.96875 8.64429V12.3969" stroke="#93278F" stroke-width="1.2" stroke-linecap="round"/>
</svg>
