<svg width="96" height="56" viewBox="0 0 96 56" fill="none" xmlns="http://www.w3.org/2000/svg">
<path d="M33.0722 46C32.9789 46 32.9042 45.972 32.8482 45.916C32.7922 45.8507 32.7642 45.7713 32.7642 45.678V36.536C32.7642 36.4333 32.7922 36.354 32.8482 36.298C32.9042 36.2327 32.9789 36.2 33.0722 36.2H36.6142C37.6689 36.2 38.4949 36.4567 39.0922 36.97C39.6989 37.474 40.0022 38.2113 40.0022 39.182C40.0022 40.1527 39.6989 40.89 39.0922 41.394C38.4949 41.898 37.6689 42.15 36.6142 42.15H34.0942V45.678C34.0942 45.7713 34.0616 45.8507 33.9962 45.916C33.9402 45.972 33.8656 46 33.7722 46H33.0722ZM36.5442 41.016C37.9536 41.016 38.6582 40.4047 38.6582 39.182C38.6582 38.5847 38.4809 38.1273 38.1262 37.81C37.7809 37.4927 37.2536 37.334 36.5442 37.334H34.0942V41.016H36.5442ZM44.3393 46.14C43.3873 46.14 42.6266 45.846 42.0573 45.258C41.4879 44.6607 41.1753 43.8487 41.1193 42.822L41.1053 42.346L41.1193 41.884C41.1753 40.876 41.4879 40.0733 42.0573 39.476C42.6266 38.8787 43.3873 38.58 44.3393 38.58C45.3659 38.58 46.1593 38.9067 46.7193 39.56C47.2886 40.2133 47.5733 41.1 47.5733 42.22V42.472C47.5733 42.5653 47.5406 42.6447 47.4753 42.71C47.4193 42.766 47.3446 42.794 47.2513 42.794H42.3933V42.92C42.4213 43.5267 42.6079 44.0447 42.9533 44.474C43.2986 44.9033 43.7559 45.118 44.3253 45.118C44.7639 45.118 45.1186 45.034 45.3893 44.866C45.6693 44.6887 45.8793 44.5067 46.0193 44.32C46.1033 44.208 46.1686 44.1427 46.2153 44.124C46.2619 44.096 46.3413 44.082 46.4533 44.082H47.0693C47.1533 44.082 47.2233 44.1053 47.2793 44.152C47.3446 44.1987 47.3773 44.2593 47.3773 44.334C47.3773 44.5393 47.2513 44.7867 46.9993 45.076C46.7473 45.3653 46.3879 45.6173 45.9213 45.832C45.4639 46.0373 44.9366 46.14 44.3393 46.14ZM46.2993 41.842V41.8C46.2993 41.1467 46.1219 40.6147 45.7673 40.204C45.4126 39.7933 44.9366 39.588 44.3393 39.588C43.7326 39.588 43.2566 39.7933 42.9113 40.204C42.5659 40.6147 42.3933 41.1467 42.3933 41.8V41.842H46.2993ZM49.5976 46C49.5043 46 49.4249 45.972 49.3596 45.916C49.3036 45.8507 49.2756 45.7713 49.2756 45.678V39.056C49.2756 38.9627 49.3036 38.8833 49.3596 38.818C49.4249 38.7527 49.5043 38.72 49.5976 38.72H50.1856C50.2883 38.72 50.3676 38.7527 50.4236 38.818C50.4889 38.874 50.5216 38.9533 50.5216 39.056V39.672C50.9043 39.0373 51.5529 38.72 52.4676 38.72H53.0136C53.1163 38.72 53.1956 38.748 53.2516 38.804C53.3076 38.86 53.3356 38.9393 53.3356 39.042V39.56C53.3356 39.6533 53.3076 39.7327 53.2516 39.798C53.1956 39.854 53.1163 39.882 53.0136 39.882H52.2156C51.7023 39.882 51.2963 40.0313 50.9976 40.33C50.7083 40.6287 50.5636 41.0347 50.5636 41.548V45.678C50.5636 45.7713 50.5309 45.8507 50.4656 45.916C50.4003 45.972 50.3209 46 50.2276 46H49.5976ZM55.5893 46C55.4959 46 55.4166 45.972 55.3513 45.916C55.2953 45.8507 55.2673 45.7713 55.2673 45.678V39.798H54.0633C53.9699 39.798 53.8906 39.77 53.8253 39.714C53.7693 39.658 53.7413 39.5833 53.7413 39.49V39.042C53.7413 38.9487 53.7693 38.874 53.8253 38.818C53.8906 38.7527 53.9699 38.72 54.0633 38.72H55.2673V38.02C55.2673 37.264 55.4493 36.6807 55.8133 36.27C56.1866 35.85 56.7933 35.64 57.6333 35.64H59.7333C59.8266 35.64 59.9013 35.6727 59.9573 35.738C60.0133 35.794 60.0413 35.8687 60.0413 35.962V36.41C60.0413 36.5033 60.0133 36.578 59.9573 36.634C59.9013 36.69 59.8266 36.718 59.7333 36.718H57.6613C57.2319 36.718 56.9333 36.83 56.7653 37.054C56.5973 37.278 56.5133 37.6233 56.5133 38.09V38.72H59.7333C59.8266 38.72 59.9013 38.7527 59.9573 38.818C60.0133 38.874 60.0413 38.9487 60.0413 39.042V45.678C60.0413 45.7713 60.0133 45.8507 59.9573 45.916C59.9013 45.972 59.8266 46 59.7333 46H59.1173C59.0239 46 58.9446 45.972 58.8793 45.916C58.8233 45.8507 58.7953 45.7713 58.7953 45.678V39.798H56.5133V45.678C56.5133 45.7713 56.4806 45.8507 56.4153 45.916C56.3593 45.972 56.2846 46 56.1913 46H55.5893ZM62.4768 46C62.3835 46 62.3042 45.972 62.2388 45.916C62.1828 45.8507 62.1548 45.7713 62.1548 45.678V36.382C62.1548 36.2793 62.1828 36.2 62.2388 36.144C62.3042 36.088 62.3835 36.06 62.4768 36.06H63.0928C63.1862 36.06 63.2608 36.0927 63.3168 36.158C63.3822 36.214 63.4148 36.2887 63.4148 36.382V45.678C63.4148 45.7713 63.3822 45.8507 63.3168 45.916C63.2608 45.972 63.1862 46 63.0928 46H62.4768Z" fill="#93278F"/>
<path d="M48 18C50.21 18 52 16.21 52 14C52 11.79 50.21 10 48 10C45.79 10 44 11.79 44 14C44 16.21 45.79 18 48 18ZM48 20C45.33 20 40 21.34 40 24V26H56V24C56 21.34 50.67 20 48 20Z" fill="#93278F"/>
</svg>
