<svg width="21" height="20" viewBox="0 0 21 20" fill="none" xmlns="http://www.w3.org/2000/svg">
<path d="M10.3172 0C4.65127 0 0.0528564 4.48 0.0528564 10C0.0528564 15.52 4.65127 20 10.3172 20C15.9831 20 20.5815 15.52 20.5815 10C20.5815 4.48 15.9831 0 10.3172 0ZM7.53554 14.29L3.85065 10.7C3.45035 10.31 3.45035 9.68 3.85065 9.29C4.25096 8.9 4.89761 8.9 5.29792 9.29L8.26431 12.17L15.3262 5.29C15.7265 4.9 16.3731 4.9 16.7734 5.29C17.1737 5.68 17.1737 6.31 16.7734 6.7L8.98281 14.29C8.59277 14.68 7.93585 14.68 7.53554 14.29Z" fill="#328B21"/>
</svg>
