<svg width="330" height="75" viewBox="0 0 330 75" fill="none" xmlns="http://www.w3.org/2000/svg">
<path d="M110.3 33.8C110.3 28 113.9 23 120.8 23C123.4 23 125.5 23.8 127.7 25.7C128.5 26.5 128.6 27.8 127.8 28.6C127 29.3 125.8 29.2 125 28.5C123.8 27.2 122.5 26.9 120.8 26.9C116.2 26.9 114 30.2 114 33.8C114 37.5 116.2 40.9 120.8 40.9C122.5 40.9 124.1 40.2 125.5 39C126.4 38.3 127.7 38.6 128.3 39.4C128.8 40.1 129 41.2 128 42.2C125.9 44.1 123.4 44.5 120.9 44.5C113.6 44.5 110.3 39.6 110.3 33.8Z" fill="#93278F"/>
<path d="M134 44.3C133 44.3 132.1 43.5 132.1 42.4V25.4C132.1 24.3 132.9 23.5 134 23.5H144.8C147.6 23.5 147.5 27.4 144.8 27.4H136.2V31.9H143.8C146.5 31.9 146.5 35.8 143.8 35.8H136.2V40.3H145.3C148 40.3 148.2 44.2 145.3 44.2H134V44.3Z" fill="#93278F"/>
<path d="M150.3 28.1002C151 22.3002 159.8 21.2002 163.9 24.4002C165.9 26.0002 163.8 28.7002 162 27.3002C159.8 25.9002 154.7 25.2002 154.1 28.3002C153.3 33.2002 166.3 30.4002 166.1 38.4002C165.9 46.0002 154.9 46.2002 150.7 42.8002C149.7 42.0002 149.7 40.7002 150.3 39.9002C151.1 39.1002 151.9 38.9002 153 39.7002C155.5 41.4002 161.8 42.6002 162.2 38.4002C161.8 33.9002 149.3 36.6002 150.3 28.1002Z" fill="#93278F"/>
<path d="M175.2 27.3H170C167.4 27.3 167.4 23.5 170 23.5H184.2C186.9 23.5 186.9 27.3 184.2 27.3H179.2V42.4C179.2 45 175.2 45.1 175.2 42.4V27.3Z" fill="#93278F"/>
<path d="M186 44.3001C185 43.8001 184.4 42.7001 185 41.4001L193.6 24.6001C194.4 23.0001 196.6 22.9001 197.3 24.6001L205.8 41.4001C207 43.7001 203.4 45.6001 202.3 43.3001L201 40.7001H189.9L188.6 43.3001C188.2 44.3001 187.1 44.5001 186 44.3001ZM198.9 36.7001L195.5 29.3001L191.8 36.7001H198.9Z" fill="#93278F"/>
<path d="M219.1 44.3C218 44.3 217.3 43.5 217.3 42.4V25.4C217.3 24.3 218.1 23.5 219.1 23.5H227.5C231.4 23.5 233.6 26.2 233.6 29.2C233.6 30.5 233.2 31.9 232 33C234.4 33.9 235.4 35.8 235.4 38C235.4 41.4 233.1 44.3 228.6 44.3H219.1ZM227.5 27.2H221.2V31.7H227.5C228.8 31.7 229.6 30.9 229.6 29.3C229.6 28.3 228.8 27.2 227.5 27.2ZM221.2 40.7H228.5C232 40.7 232 35.4 228.5 35.4C226.2 35.4 223.6 35.4 221.2 35.4V40.7Z" fill="#93278F"/>
<path d="M238.5 44.3C237.5 43.8 236.9 42.7 237.5 41.4L246.1 24.6C246.9 23 249.1 22.9 249.8 24.6L258.3 41.4C259.5 43.7 255.9 45.6 254.8 43.3L253.5 40.7H242.4L241.1 43.3C240.7 44.3 239.6 44.5 238.5 44.3ZM251.4 36.7L248 29.3L244.3 36.7H251.4ZM248.7 17.1C250.7 15.7 252.7 18.5 250.9 19.8L247.7 21.9C245.8 23.1 243.9 20.5 245.8 19.2L248.7 17.1Z" fill="#93278F"/>
<path d="M260.7 28.1002C261.4 22.3002 270.199 21.2002 274.299 24.4002C276.299 26.0002 274.199 28.7002 272.399 27.3002C270.199 25.9002 265.1 25.2002 264.5 28.3002C263.7 33.2002 276.7 30.4002 276.5 38.4002C276.3 46.0002 265.3 46.2002 261.1 42.8002C260.1 42.0002 260.1 40.7002 260.7 39.9002C261.5 39.1002 262.299 38.9002 263.399 39.7002C265.899 41.4002 272.2 42.6002 272.6 38.4002C272.2 33.9002 259.8 36.6002 260.7 28.1002Z" fill="#93278F"/>
<path d="M280.2 25.4C280.2 22.9 284.2 22.8 284.2 25.4V42.5C284.2 45 280.2 45 280.2 42.5V25.4Z" fill="#93278F"/>
<path d="M287.8 33.8C287.8 28 291.4 23 298.3 23C300.9 23 303 23.8 305.2 25.7C306 26.5 306.1 27.8 305.3 28.6C304.5 29.3 303.3 29.2 302.5 28.5C301.3 27.2 300 26.9 298.3 26.9C293.7 26.9 291.5 30.2 291.5 33.8C291.5 37.5 293.7 40.9 298.3 40.9C300 40.9 301.6 40.2 303 39C303.9 38.3 305.2 38.6 305.8 39.4C306.3 40.1 306.5 41.2 305.5 42.2C303.4 44.1 300.9 44.5 298.4 44.5C291.1 44.5 287.8 39.6 287.8 33.8Z" fill="#93278F"/>
<path d="M309.3 44.3001C308.3 43.8001 307.7 42.7001 308.3 41.4001L316.9 24.6001C317.7 23.0001 319.9 22.9001 320.6 24.6001L329.1 41.4001C330.3 43.7001 326.7 45.6001 325.6 43.3001L324.3 40.7001H313.2L311.9 43.3001C311.5 44.3001 310.4 44.5001 309.3 44.3001ZM322.2 36.7001L318.8 29.3001L315.1 36.7001H322.2Z" fill="#93278F"/>
<path d="M113.1 74.3C112.1 74.3 111 73.8 111 72.4V55.4C111 54.3 112.1 53.5 113.1 53.5H120C133.7 53.5 133.4 74.3 120.3 74.3H113.1ZM115 57.2V70.6H120C128.1 70.6 128.5 57.2 120 57.2H115Z" fill="#93278F"/>
<path d="M133.899 55.4C133.899 52.9 137.899 52.8 137.899 55.4V72.5C137.899 75 133.899 75 133.899 72.5V55.4Z" fill="#93278F"/>
<path d="M160 72C157.9 73.8 155.3 74.5 152.6 74.5C146.3 74.5 141.8 70.9 141.8 63.8C141.8 57.7 146.5 53 152.8 53C155.2 53 157.8 53.8 159.6 55.6C161.4 57.4 158.8 60.1 157 58.5C155.9 57.4 154.3 56.6 152.8 56.6C149.2 56.6 145.7 59.5 145.7 63.7C145.7 68.1 148.6 70.8 152.6 70.8C154.4 70.8 156 70.3 157.1 69.4V65.7H152.6C149.9 65.7 150.2 62 152.6 62H158.6C159.7 62 160.7 62.8 160.7 63.8V70.2C160.8 70.9 160.5 71.5 160 72Z" fill="#93278F"/>
<path d="M165.3 55.4C165.3 52.9 169.3 52.8 169.3 55.4V72.5C169.3 75 165.3 75 165.3 72.5V55.4Z" fill="#93278F"/>
<path d="M179.4 57.3H174.2C171.6 57.3 171.6 53.5 174.2 53.5H188.4C191.1 53.5 191.1 57.3 188.4 57.3H183.4V72.4C183.4 75 179.4 75.1 179.4 72.4V57.3Z" fill="#93278F"/>
<path d="M190.199 74.3001C189.199 73.8001 188.599 72.7001 189.199 71.4001L197.799 54.6001C198.599 53.0001 200.799 52.9001 201.499 54.6001L209.999 71.4001C211.199 73.7001 207.599 75.6001 206.499 73.3001L205.199 70.7001H194.099L192.799 73.3001C192.299 74.3001 191.199 74.5001 190.199 74.3001ZM203.099 66.7001L199.699 59.3001L195.999 66.7001H203.099Z" fill="#93278F"/>
<path d="M212.7 55.4001C212.7 54.4001 213.5 53.6001 214.6 53.6001C215.6 53.6001 216.4 54.4001 216.4 55.4001V70.4001H224.6C227.5 70.4001 227.6 74.3001 224.6 74.3001H214.7C213.7 74.3001 212.8 73.5001 212.8 72.5001V55.4001H212.7Z" fill="#93278F"/>
<path d="M78.0004 28.1002C78.9004 28.1002 79.6004 28.4002 80.1004 28.9002C80.5004 29.4002 80.6004 30.2002 80.5004 31.1002L73.2004 65.0002C72.6004 67.6002 69.7004 70.0002 67.0004 70.0002H18.4004C15.7004 70.0002 12.8004 67.6002 12.2004 65.0002L5.00042 31.1002C4.80042 30.2002 4.90042 29.4002 5.40042 28.9002C5.80042 28.4002 6.50042 28.1002 7.50042 28.1002H78.0004ZM78.0004 23.2002H7.40042C2.40042 23.2002 -0.799579 27.2002 0.200421 32.1002L7.40042 66.0002C8.40042 70.9002 13.4004 74.9002 18.4004 74.9002H67.0004C72.0004 74.9002 76.9004 70.9002 78.0004 66.0002L85.2004 32.1002C86.3004 27.2002 83.0004 23.2002 78.0004 23.2002Z" fill="url(#paint0_linear)"/>
<path d="M18.6005 34.4002C18.1005 34.4002 17.6005 34.3002 17.2005 34.0002C15.8005 33.2002 15.3005 31.4002 16.1005 30.0002L31.7005 1.80016C32.5005 0.400163 34.3005 -0.0998435 35.7005 0.700156C37.1005 1.50016 37.6005 3.30016 36.8005 4.70016L21.2005 32.9002C20.6005 33.9002 19.6005 34.4002 18.6005 34.4002Z" fill="#328B21"/>
<path d="M66.9002 34.4002C65.9002 34.4002 64.9002 33.9002 64.3002 32.9002L48.7002 4.70016C47.9002 3.30016 48.4002 1.50016 49.8002 0.700156C51.2002 -0.0998435 53.0002 0.400163 53.8002 1.80016L69.4002 30.0002C70.2002 31.4002 69.7002 33.2002 68.3002 34.0002C67.8002 34.3002 67.3002 34.4002 66.9002 34.4002Z" fill="#328B21"/>
<path d="M59.1006 40.2V36.6H55.5006V33H51.9006H48.3006V36.6H44.7006V40.2H41.1006V36.6H37.5006V33H33.9006H30.3006V36.6H26.7006V40.2H23.1006V43.8V47.4H26.7006V51H30.3006V54.6H33.9006V58.2H37.5006V61.8H41.1006V65.4H44.7006V61.8H48.3006V58.2H51.9006V54.6H55.5006V51H59.1006V47.4H62.7006V43.8V40.2H59.1006Z" fill="#93278F"/>
<defs>
<linearGradient id="paint0_linear" x1="12.9406" y1="73.9122" x2="72.4642" y2="14.3886" gradientUnits="userSpaceOnUse">
<stop stop-color="#328B21"/>
<stop offset="1" stop-color="#196D08"/>
</linearGradient>
</defs>
</svg>
