<svg width="180" height="165" viewBox="0 0 180 165" fill="none" xmlns="http://www.w3.org/2000/svg">
<path d="M124.08 28.7499C124.99 28.7499 125.72 29.0299 126.14 29.5499C126.56 30.0599 126.68 30.8399 126.49 31.7299L119.27 65.6199C118.71 68.2499 115.76 70.6399 113.07 70.6399H64.4502C61.7702 70.6399 58.8102 68.2499 58.2502 65.6199L51.0302 31.7299C50.8402 30.8399 50.9602 30.0599 51.3802 29.5499C51.8002 29.0399 52.5302 28.7499 53.4402 28.7499H124.08ZM124.08 23.8599H53.4502C48.4502 23.8599 45.2202 27.8599 46.2602 32.7499L53.4802 66.6399C54.5202 71.5299 59.4602 75.5299 64.4602 75.5299H113.08C118.08 75.5299 123.02 71.5299 124.06 66.6399L131.28 32.7499C132.31 27.8599 129.07 23.8599 124.08 23.8599Z" fill="url(#paint0_linear)"/>
<path d="M101.09 37.0601C97.13 34.2401 91.67 35.1001 88.76 38.9601C85.85 35.1101 80.39 34.2401 76.43 37.0601C72.41 39.9301 71.47 45.5201 74.34 49.5401L87.18 63.1801C87.47 63.5801 87.91 63.8501 88.41 63.9401C88.52 63.9601 88.62 63.9801 88.73 63.9801C88.74 63.9801 88.75 63.9801 88.76 63.9801C88.77 63.9801 88.78 63.9801 88.79 63.9801C88.9 63.9801 89.01 63.9601 89.11 63.9401C89.61 63.8501 90.06 63.5801 90.34 63.1801L103.18 49.5401C106.05 45.5201 105.12 39.9301 101.09 37.0601Z" fill="#93278F"/>
<path d="M80.2103 3.92993L64.6104 32.0999" stroke="#328B21" stroke-width="5.8669" stroke-miterlimit="10" stroke-linecap="round"/>
<path d="M97.3203 3.92993L112.91 32.0999" stroke="#328B21" stroke-width="5.8669" stroke-miterlimit="10" stroke-linecap="round"/>
<path d="M5.7998 117.06C5.7998 111.4 9.34981 106.53 16.0998 106.53C18.6498 106.53 20.6798 107.29 22.8198 109.14C23.6098 109.87 23.6998 111.16 22.9098 111.98C22.1198 112.68 20.9098 112.6 20.2098 111.89C19.0098 110.63 17.7698 110.28 16.0998 110.28C11.5798 110.28 9.40981 113.48 9.40981 117.06C9.40981 120.7 11.5498 124.04 16.0998 124.04C17.7698 124.04 19.3298 123.37 20.6798 122.16C21.5898 121.46 22.8498 121.81 23.3798 122.51C23.8498 123.16 24.0798 124.24 23.0598 125.27C21.0098 127.18 18.5398 127.56 16.1098 127.56C8.9998 127.56 5.7998 122.73 5.7998 117.06Z" fill="#93278F"/>
<path d="M29.2697 127.36C28.2397 127.36 27.4497 126.57 27.4497 125.54V108.88C27.4497 107.82 28.2397 107.06 29.2697 107.06H39.7997C42.4997 107.06 42.4397 110.87 39.7997 110.87H31.3497V115.27H38.7397C41.3497 115.27 41.3497 119.11 38.7397 119.11H31.3497V123.51H40.2997C42.9697 123.51 43.1697 127.35 40.2997 127.35H29.2697V127.36Z" fill="#93278F"/>
<path d="M45.4697 111.46C46.1397 105.77 54.7397 104.74 58.7897 107.85C60.7797 109.46 58.6697 112.02 56.9097 110.72C54.7397 109.34 49.8097 108.7 49.1897 111.75C48.3997 116.56 61.1597 113.8 60.9497 121.6C60.7397 129.05 49.9497 129.23 45.8997 125.88C44.9297 125.09 44.9597 123.8 45.4897 123.01C46.2497 122.25 47.0997 121.98 48.0997 122.8C50.5097 124.44 56.6897 125.67 57.1397 121.51C56.7597 117.18 44.5597 119.79 45.4697 111.46Z" fill="#93278F"/>
<path d="M70.1399 110.73H64.9999C62.4499 110.73 62.4499 106.98 64.9999 106.98H78.8699C81.4799 106.98 81.4799 110.73 78.8699 110.73H73.9999V125.54C73.9999 128.09 70.1299 128.15 70.1299 125.54V110.73H70.1399Z" fill="#93278F"/>
<path d="M80.9898 127.36C80.0498 126.83 79.4598 125.77 80.0498 124.54L88.4698 108.09C89.2598 106.54 91.3698 106.48 92.1098 108.09L100.38 124.54C101.58 126.83 98.0298 128.65 96.9798 126.36L95.6898 123.78H84.8698L83.6098 126.36C83.1298 127.36 82.0398 127.56 80.9898 127.36ZM93.5998 119.91L90.2798 112.67L86.6698 119.91H93.5998Z" fill="#93278F"/>
<path d="M102.99 111.46C103.66 105.77 112.26 104.74 116.31 107.85C118.3 109.46 116.19 112.02 114.43 110.72C112.26 109.34 107.33 108.7 106.71 111.75C105.92 116.56 118.68 113.8 118.47 121.6C118.26 129.05 107.47 129.23 103.42 125.88C102.45 125.09 102.48 123.8 103.01 123.01C103.77 122.25 104.62 121.98 105.62 122.8C108.03 124.44 114.21 125.67 114.66 121.51C114.28 117.18 102.08 119.79 102.99 111.46Z" fill="#93278F"/>
<path d="M133.03 127.36C132.06 127.36 131.01 126.83 131.01 125.54V108.88C131.01 107.82 132.07 107.06 133.03 107.06H139.75C153.15 107.06 152.86 127.36 140.01 127.36H133.03ZM134.88 110.64V123.78H139.75C147.67 123.78 148.02 110.64 139.75 110.64H134.88Z" fill="#93278F"/>
<path d="M153.03 127.36C152.09 126.83 151.5 125.77 152.09 124.54L160.51 108.09C161.3 106.54 163.41 106.48 164.15 108.09L172.42 124.54C173.62 126.83 170.07 128.65 169.02 126.36L167.73 123.78H156.91L155.65 126.36C155.17 127.36 154.09 127.56 153.03 127.36ZM165.65 119.91L162.33 112.67L158.72 119.91H165.65Z" fill="#93278F"/>
<path d="M1.8698 158.65C0.839797 158.65 0.0498047 157.86 0.0498047 156.83V140.17C0.0498047 139.11 0.839797 138.35 1.8698 138.35H12.3998C15.0998 138.35 15.0398 142.16 12.3998 142.16H3.9498V146.56H11.3398C13.9498 146.56 13.9498 150.4 11.3398 150.4H3.9498V154.8H12.8998C15.5698 154.8 15.7698 158.64 12.8998 158.64H1.8698V158.65Z" fill="#93278F"/>
<path d="M18.0698 142.75C18.7398 137.06 27.3398 136.03 31.3898 139.14C33.3798 140.75 31.2698 143.31 29.5098 142.01C27.3398 140.63 22.4098 139.99 21.7898 143.04C20.9998 147.85 33.7598 145.09 33.5498 152.89C33.3398 160.34 22.5498 160.52 18.4998 157.17C17.5298 156.38 17.5598 155.09 18.0898 154.3C18.8498 153.54 19.6998 153.27 20.6998 154.09C23.1098 155.73 29.2898 156.96 29.7398 152.8C29.3598 148.47 17.1598 151.08 18.0698 142.75Z" fill="#93278F"/>
<path d="M37.25 140.11C37.25 139.14 38.01 138.09 39.24 138.09H46.02C49.83 138.09 53.27 140.64 53.27 145.54C53.27 150.18 49.84 152.76 46.02 152.76H41.12V156.63C41.12 157.92 40.3 158.65 39.24 158.65C38.27 158.65 37.25 157.92 37.25 156.63V140.11ZM41.12 141.78V149.08H46.02C47.99 149.08 49.54 147.35 49.54 145.53C49.54 143.48 47.99 141.78 46.02 141.78H41.12Z" fill="#93278F"/>
<path d="M58.4597 158.65C57.4297 158.65 56.6396 157.86 56.6396 156.83V140.17C56.6396 139.11 57.4297 138.35 58.4597 138.35H68.9897C71.6897 138.35 71.6297 142.16 68.9897 142.16H60.5396V146.56H67.9296C70.5396 146.56 70.5396 150.4 67.9296 150.4H60.5396V154.8H69.4897C72.1597 154.8 72.3597 158.64 69.4897 158.64H58.4597V158.65Z" fill="#93278F"/>
<path d="M78.9098 156.74C78.9098 159.29 75.0098 159.38 75.0098 156.8V140.14C75.0098 139.11 75.7997 138.35 76.7697 138.35H84.5698C92.0198 138.35 93.5497 148.32 87.3297 150.82L91.2298 155.57C92.7598 157.83 89.6998 160 87.9498 157.77L83.5197 151.43H78.9198V156.74H78.9098ZM78.9098 148.06H84.5698C88.3798 148.06 88.6198 141.9 84.5698 141.9H78.9098V148.06Z" fill="#93278F"/>
<path d="M94.7198 158.65C93.7798 158.12 93.1898 157.06 93.7798 155.83L102.2 139.38C102.99 137.83 105.1 137.77 105.84 139.38L114.11 155.83C115.31 158.12 111.76 159.94 110.71 157.65L109.42 155.07H98.5998L97.3398 157.65C96.8598 158.65 95.7698 158.85 94.7198 158.65ZM107.33 151.2L104.01 143.96L100.4 151.2H107.33Z" fill="#93278F"/>
<path d="M117.1 140.4C117.1 139.34 117.33 138.32 118.86 138.32C119.92 138.32 120.15 138.58 120.94 139.35L130.65 151.49V140.11C130.65 139.14 131.5 138.09 132.5 138.09C133.56 138.09 134.58 139.15 134.58 140.11V156.62C134.58 157.91 133.79 158.41 133.03 158.64C132 158.64 131.5 158.41 130.65 157.61L120.94 145.29V156.61C120.94 157.9 120.15 158.63 119.09 158.63C118.03 158.63 117.1 157.9 117.1 156.61V140.4Z" fill="#93278F"/>
<path d="M149.87 159.47C149.2 160.12 148.87 161.35 148.84 162.55C148.64 165.45 144.71 164.25 145.23 161.99C145.32 160.96 145.7 159.73 146.46 158.94C140.83 157.94 138.07 153.57 138.07 148.41C138.07 142.72 141.59 137.82 148.57 137.82C151.12 137.82 153.47 138.58 155.46 140.69C157.1 142.71 154.61 144.88 152.97 143.39C151.68 142.1 150.33 141.54 148.57 141.54C144.23 141.54 141.94 144.82 141.94 148.4C141.94 152.01 144.23 155.12 148.57 155.35C150.12 155.35 151.91 154.56 153.21 153.3C155.15 151.78 157.32 154.53 155.76 156.09C153.68 158.18 150.6 158.42 149.87 159.47Z" fill="#93278F"/>
<path d="M159.49 158.65C158.55 158.12 157.96 157.06 158.55 155.83L166.97 139.38C167.76 137.83 169.87 137.77 170.61 139.38L178.88 155.83C180.08 158.12 176.53 159.94 175.48 157.65L174.19 155.07H163.37L162.11 157.65C161.63 158.65 160.55 158.85 159.49 158.65ZM172.1 151.2L168.78 143.96L165.17 151.2H172.1Z" fill="#93278F"/>
<defs>
<linearGradient id="paint0_linear" x1="59.0014" y1="74.5343" x2="118.525" y2="15.0107" gradientUnits="userSpaceOnUse">
<stop stop-color="#328B21"/>
<stop offset="1" stop-color="#196D08"/>
</linearGradient>
</defs>
</svg>
