<svg width="292" height="81" viewBox="0 0 292 81" fill="none" xmlns="http://www.w3.org/2000/svg">
<path d="M111.72 33.4201C111.72 27.7601 115.27 22.8901 122.02 22.8901C124.57 22.8901 126.6 23.6501 128.74 25.5001C129.53 26.2301 129.62 27.5201 128.83 28.3501C128.04 29.0501 126.83 28.9601 126.13 28.2601C124.93 27.0001 123.7 26.6501 122.02 26.6501C117.5 26.6501 115.33 29.8501 115.33 33.4301C115.33 37.0701 117.47 40.4101 122.02 40.4101C123.69 40.4101 125.25 39.7301 126.6 38.5301C127.51 37.8301 128.77 38.1801 129.3 38.8801C129.77 39.5301 130 40.6101 128.98 41.6401C126.93 43.5501 124.46 43.9301 122.03 43.9301C114.91 43.9201 111.72 39.0801 111.72 33.4201Z" fill="#93278F"/>
<path d="M135.19 43.7199C134.16 43.7199 133.37 42.9299 133.37 41.8999V25.2399C133.37 24.1799 134.16 23.4199 135.19 23.4199H145.72C148.42 23.4199 148.36 27.2299 145.72 27.2299H137.27V31.6299H144.66C147.27 31.6299 147.27 35.4699 144.66 35.4699H137.27V39.8699H146.22C148.89 39.8699 149.09 43.7099 146.22 43.7099H135.19V43.7199Z" fill="#93278F"/>
<path d="M151.38 27.8199C152.05 22.1299 160.65 21.0999 164.7 24.2099C166.69 25.8199 164.58 28.3799 162.82 27.0799C160.65 25.6999 155.72 25.0599 155.1 28.1099C154.31 32.9199 167.07 30.1599 166.86 37.9699C166.65 45.4199 155.86 45.5999 151.81 42.2499C150.84 41.4599 150.87 40.1699 151.4 39.3799C152.16 38.6199 153.01 38.3499 154.01 39.1799C156.42 40.8199 162.6 42.0499 163.05 37.8899C162.67 33.5399 150.47 36.1499 151.38 27.8199Z" fill="#93278F"/>
<path d="M176.05 27.0898H170.92C168.37 27.0898 168.37 23.3398 170.92 23.3398H184.79C187.4 23.3398 187.4 27.0898 184.79 27.0898H179.92V41.8998C179.92 44.4498 176.05 44.5098 176.05 41.8998V27.0898Z" fill="#93278F"/>
<path d="M186.9 43.72C185.96 43.19 185.37 42.14 185.96 40.9L194.38 24.44C195.17 22.89 197.28 22.83 198.02 24.44L206.29 40.9C207.49 43.19 203.94 45.01 202.89 42.72L201.6 40.14H190.78L189.52 42.72C189.04 43.72 187.96 43.92 186.9 43.72ZM199.52 36.27L196.2 29.02L192.59 36.27H199.52Z" fill="#93278F"/>
<path d="M208.9 27.8199C209.57 22.1299 218.17 21.0999 222.22 24.2099C224.21 25.8199 222.1 28.3799 220.34 27.0799C218.17 25.6999 213.24 25.0599 212.62 28.1099C211.83 32.9199 224.59 30.1599 224.38 37.9699C224.17 45.4199 213.38 45.5999 209.33 42.2499C208.36 41.4599 208.39 40.1699 208.92 39.3799C209.68 38.6199 210.53 38.3499 211.53 39.1799C213.94 40.8199 220.12 42.0499 220.57 37.8899C220.2 33.5399 208 36.1499 208.9 27.8199Z" fill="#93278F"/>
<path d="M238.94 43.7199C237.97 43.7199 236.92 43.1899 236.92 41.8999V25.2399C236.92 24.1799 237.98 23.4199 238.94 23.4199H245.66C259.06 23.4199 258.77 43.7199 245.92 43.7199H238.94ZM240.79 26.9999V40.1399H245.66C253.58 40.1399 253.93 26.9999 245.66 26.9999H240.79Z" fill="#93278F"/>
<path d="M258.95 43.72C258.01 43.19 257.42 42.14 258.01 40.9L266.43 24.44C267.22 22.89 269.33 22.83 270.07 24.44L278.34 40.9C279.54 43.19 275.99 45.01 274.94 42.72L273.65 40.14H262.83L261.57 42.72C261.09 43.72 260 43.92 258.95 43.72ZM271.56 36.27L268.24 29.02L264.63 36.27H271.56Z" fill="#93278F"/>
<path d="M114.24 75.01C113.21 75.01 112.42 74.22 112.42 73.19V56.53C112.42 55.47 113.21 54.71 114.24 54.71H124.77C127.47 54.71 127.41 58.52 124.77 58.52H116.32V62.92H123.71C126.32 62.92 126.32 66.76 123.71 66.76H116.32V71.16H125.27C127.94 71.16 128.14 75 125.27 75H114.24V75.01Z" fill="#93278F"/>
<path d="M130.43 59.11C131.1 53.42 139.7 52.39 143.75 55.5C145.74 57.11 143.63 59.67 141.87 58.37C139.7 56.99 134.77 56.35 134.15 59.4C133.36 64.21 146.12 61.45 145.91 69.26C145.7 76.71 134.91 76.89 130.86 73.54C129.89 72.75 129.92 71.46 130.45 70.67C131.21 69.91 132.06 69.64 133.06 70.47C135.47 72.11 141.65 73.34 142.1 69.18C141.73 64.83 129.52 67.44 130.43 59.11Z" fill="#93278F"/>
<path d="M149.62 56.4702C149.62 55.5002 150.38 54.4502 151.61 54.4502H158.39C162.2 54.4502 165.64 57.0002 165.64 61.9002C165.64 66.5302 162.21 69.1202 158.39 69.1202H153.49V72.9902C153.49 74.2802 152.67 75.0102 151.61 75.0102C150.64 75.0102 149.62 74.2802 149.62 72.9902V56.4702ZM153.49 58.1402V65.4402H158.39C160.36 65.4402 161.91 63.7102 161.91 61.8902C161.91 59.8402 160.36 58.1402 158.39 58.1402H153.49Z" fill="#93278F"/>
<path d="M170.83 75.01C169.8 75.01 169.01 74.22 169.01 73.19V56.53C169.01 55.47 169.8 54.71 170.83 54.71H181.36C184.06 54.71 184 58.52 181.36 58.52H172.91V62.92H180.3C182.91 62.92 182.91 66.76 180.3 66.76H172.91V71.16H181.86C184.53 71.16 184.73 75 181.86 75H170.83V75.01Z" fill="#93278F"/>
<path d="M191.27 73.1C191.27 75.65 187.37 75.74 187.37 73.16V56.5C187.37 55.47 188.16 54.71 189.13 54.71H196.93C204.38 54.71 205.91 64.68 199.69 67.18L203.59 71.93C205.12 74.19 202.06 76.36 200.31 74.13L195.88 67.8H191.28V73.1H191.27ZM191.27 64.42H196.93C200.74 64.42 200.98 58.26 196.93 58.26H191.27V64.42Z" fill="#93278F"/>
<path d="M207.08 75.01C206.14 74.48 205.55 73.43 206.14 72.19L214.56 55.73C215.35 54.18 217.46 54.12 218.2 55.73L226.47 72.19C227.67 74.48 224.12 76.3 223.07 74.01L221.78 71.43H210.96L209.7 74.01C209.23 75.01 208.14 75.21 207.08 75.01ZM219.7 67.56L216.38 60.31L212.77 67.56H219.7Z" fill="#93278F"/>
<path d="M229.47 56.7602C229.47 55.7002 229.7 54.6802 231.23 54.6802C232.29 54.6802 232.52 54.9402 233.31 55.7102L243.02 67.8502V56.4702C243.02 55.5002 243.87 54.4502 244.87 54.4502C245.93 54.4502 246.95 55.5102 246.95 56.4702V72.9802C246.95 74.2702 246.16 74.7702 245.4 75.0002C244.37 75.0002 243.87 74.7702 243.02 73.9702L233.31 61.6502V72.9702C233.31 74.2602 232.52 74.9902 231.46 74.9902C230.4 74.9902 229.47 74.2602 229.47 72.9702V56.7602Z" fill="#93278F"/>
<path d="M262.23 75.8297C261.56 76.4797 261.23 77.7097 261.2 78.9097C261 81.8097 257.07 80.6097 257.59 78.3497C257.68 77.3197 258.06 76.0897 258.82 75.2997C253.19 74.2997 250.43 69.9297 250.43 64.7697C250.43 59.0797 253.95 54.1797 260.93 54.1797C263.48 54.1797 265.83 54.9397 267.82 57.0497C269.46 59.0697 266.97 61.2497 265.33 59.7497C264.04 58.4597 262.69 57.8997 260.93 57.8997C256.59 57.8997 254.3 61.1797 254.3 64.7597C254.3 68.3697 256.59 71.4797 260.93 71.7097C262.48 71.7097 264.27 70.9197 265.57 69.6597C267.51 68.1297 269.68 70.8897 268.12 72.4497C266.05 74.5397 262.97 74.7697 262.23 75.8297Z" fill="#93278F"/>
<path d="M271.86 75.01C270.92 74.48 270.33 73.43 270.92 72.19L279.34 55.73C280.13 54.18 282.24 54.12 282.98 55.73L291.25 72.19C292.45 74.48 288.9 76.3 287.85 74.01L286.56 71.43H275.74L274.48 74.01C274 75.01 272.91 75.21 271.86 75.01ZM284.47 67.56L281.15 60.31L277.54 67.56H284.47Z" fill="#93278F"/>
<path d="M78.9503 28.1302C79.8603 28.1302 80.5903 28.4102 81.0103 28.9302C81.4303 29.4402 81.5503 30.2202 81.3603 31.1102L74.1403 65.0002C73.5803 67.6302 70.6303 70.0202 67.9403 70.0202H19.3203C16.6403 70.0202 13.6803 67.6302 13.1203 65.0002L5.90029 31.1102C5.71029 30.2202 5.83029 29.4402 6.25029 28.9302C6.67029 28.4202 7.40029 28.1302 8.31029 28.1302H78.9503ZM78.9503 23.2402H8.3203C3.3203 23.2402 0.0902987 27.2402 1.1303 32.1302L8.3503 66.0202C9.3903 70.9102 14.3303 74.9102 19.3303 74.9102H67.9503C72.9503 74.9102 77.8903 70.9102 78.9303 66.0202L86.1503 32.1302C87.1803 27.2402 83.9503 23.2402 78.9503 23.2402Z" fill="url(#paint0_linear)"/>
<path d="M55.9703 36.44C52.0103 33.62 46.5503 34.48 43.6403 38.34C40.7303 34.49 35.2703 33.62 31.3103 36.44C27.2903 39.31 26.3503 44.9 29.2203 48.92L42.0603 62.56C42.3503 62.96 42.7903 63.23 43.2903 63.32C43.4003 63.34 43.5003 63.36 43.6103 63.36C43.6203 63.36 43.6303 63.36 43.6403 63.36C43.6503 63.36 43.6603 63.36 43.6703 63.36C43.7803 63.36 43.8903 63.34 43.9903 63.32C44.4903 63.23 44.9403 62.96 45.2203 62.56L58.0603 48.92C60.9303 44.9 59.9903 39.31 55.9703 36.44Z" fill="#93278F"/>
<path d="M35.0802 3.31006L19.4902 31.4801" stroke="#328B21" stroke-width="5.8669" stroke-miterlimit="10" stroke-linecap="round"/>
<path d="M52.1904 3.31006L67.7904 31.4801" stroke="#328B21" stroke-width="5.8669" stroke-miterlimit="10" stroke-linecap="round"/>
<defs>
<linearGradient id="paint0_linear" x1="13.8746" y1="73.9122" x2="73.3982" y2="14.3886" gradientUnits="userSpaceOnUse">
<stop stop-color="#328B21"/>
<stop offset="1" stop-color="#196D08"/>
</linearGradient>
</defs>
</svg>
